<?xml version="1.0" encoding="UTF-8"?>
<!-- Created with Inkscape (http://www.inkscape.org/) -->
<svg width="5840.9" height="943.56" version="1.1" viewBox="0 0 5840.9 943.56" xmlns="http://www.w3.org/2000/svg">
 <g transform="translate(1116.2 23.4)">
  <g transform="matrix(31.718 0 0 31.718 -5337.2 -5635)">
   <path d="m147.45 199.64 3.2812-8.125c1.5625-0.0859 4.0977 0.26563 5.668 0.64453l-3.375 8.3594c-1.5312-0.37891-4.043-0.83985-5.5742-0.87891" fill="#3d87cf"/>
   <path d="m162.2 195.43-3.4102 8.3984c-1.1406-0.9375-4.2656-2.7188-5.7656-3.3086l3.375-8.3594c1.5273 0.54297 4.7891 2.1797 5.8008 3.2695" fill="#fac705"/>
   <path d="m165.54 187.65-3.3477 7.7812c-1.0938-1-4.2578-2.707-5.8008-3.2695l3.3828-8.375c1.543 0.51563 4.7617 2.7188 5.7656 3.8633" fill="#66c557"/>
   <path d="m150.73 191.52 3.3281-8.2227c1.5586-0.0547 4.1562 0.19141 5.7226 0.49219l-3.3828 8.375c-1.5508-0.42578-4.1172-0.67578-5.668-0.64453" fill="#f3632e"/>
   <path d="m139.46 194.54-1.6055-0.0273c0.10937-0.32422 0.25-0.6875 0.38672-0.99219l1.6211-4e-3c-0.11719 0.33204-0.25781 0.69141-0.40234 1.0234" fill="#3d87cf"/>
   <path d="m141.94 195.88-2.0234-0.0117 0.56641-1.375c0.66797-4e-3 1.3438 0 2.0156 0.0234l-0.55859 1.3633" fill="#3d87cf"/>
   <path d="m145.3 195.54c-0.23437 0.53906-0.43359 1.1172-0.67578 1.6602l-2.2773-0.0273 0.67187-1.6484 2.2812 0.0156" fill="#3d87cf"/>
   <path d="m137.3 192.89-1.168-8e-3c0.0937-0.26953 0.21094-0.57031 0.33203-0.83985 0.39844-4e-3 0.79688-0.0273 1.1953-0.0117l-0.35938 0.85937" fill="#3d87cf"/>
   <path d="m135.19 191.18c-0.30078 8e-3 -0.60547 0.0391-0.90625 0.0312l0.29297-0.71093c0.30078-0.0156 0.60156-0.0312 0.90234-0.0312l-0.28906 0.71093" fill="#3d87cf"/>
   <path d="m140.52 191.9-1.6094-0.0195 0.38671-0.98828c0.54688 0.0156 1.0938-0.0156 1.6367 4e-3l-0.41406 1.0039" fill="#3d87cf"/>
   <path d="m142.99 193.26-2.0078-8e-3 0.54297-1.3672c0.67578-4e-3 1.3516-8e-3 2.0274 8e-3l-0.5625 1.3672" fill="#3d87cf"/>
   <path d="m145.7 194.55-2.2852-0.0508 0.66406-1.6211 2.2774 0.0234-0.65625 1.6484" fill="#3d87cf"/>
   <path d="m138.41 190.16c-0.39063-0.0117-0.79297 0.0195-1.1875-4e-3l0.35937-0.88672 1.1641 0.0312c-0.0859 0.27734-0.20703 0.58203-0.33594 0.85938" fill="#3d87cf"/>
   <path d="m136.29 188.46-0.90235 0.0195 0.27735-0.70703c0.29297-0.0273 0.60937-0.0273 0.91406-0.0273l-0.28906 0.71484" fill="#3d87cf"/>
   <path d="m142.71 186.48-1.6133-0.0117 0.39453-1.0078c0.54297 8e-3 1.0859 0 1.6328 0.0117l-0.41406 1.0078" fill="#f3632e"/>
   <path d="m143.18 187.84 0.54297-1.3828h2.0117l-0.54297 1.3828h-2.0117" fill="#f3632e"/>
   <path d="m147.92 189.04-2.2852-0.0156 0.66015-1.6445 2.2812 8e-3 -0.65625 1.6523" fill="#f3632e"/>
   <path d="m140.61 184.72c-0.38281 0.0195-0.78515 0-1.1758 8e-3l0.32813-0.875c0.38281-0.0312 0.78906 0.0156 1.1758 4e-3l-0.32813 0.86328" fill="#f3632e"/>
   <path d="m138.48 183.01c-0.30078 8e-3 -0.60156 0.0391-0.90625 0.0273l0.29688-0.71094 0.89453-0.043-0.28516 0.72656" fill="#f3632e"/>
   <path d="m143.8 183.78c-0.53906 0-1.0781-8e-3 -1.6172-0.0312l0.39844-0.98828c0.54297 8e-3 1.0859-0.0117 1.6289 4e-3l-0.41016 1.0156" fill="#f3632e"/>
   <path d="m146.27 185.14c-0.67187 0-1.3477 0.0117-2.0234-8e-3l0.5625-1.375c0.67578-8e-3 1.3477 4e-3 2.0234 8e-3l-0.5625 1.375" fill="#f3632e"/>
   <path d="m148.96 186.45-2.2695-0.0234 0.66016-1.6524 2.2852 0.0156-0.67578 1.6602" fill="#f3632e"/>
   <path d="m141.69 182.02h-1.1797l0.34765-0.88672c0.39844 0.0195 0.78907 0 1.1836 0.0234l-0.35156 0.86328" fill="#f3632e"/>
   <path d="m139.58 180.3-0.90625 0.0391 0.28125-0.71484c0.30078-0.0352 0.60547-0.0195 0.90625-0.0391l-0.28125 0.71485" fill="#f3632e"/>
   <path d="m138.44 197.3c-0.63672 8e-3 -1.2773 4e-3 -1.918-0.0156l0.45703-1.1328c0.64063 0 1.2852 0.0195 1.9336 0.0117l-0.47266 1.1367"/>
   <path d="m153.11 184.74-2.8711 0.0195 1.0078-2.5039c0.97656-0.10938 1.9609-0.21485 2.9414-0.1836l-1.0781 2.668"/>
   <path d="m140.71 177.73-1.0898 0.0234 0.31641-0.8086c0.36718-8e-3 0.73437-0.0234 1.1016-0.0234l-0.32813 0.8086"/>
   <path d="m142.88 179.33c-0.48438-0.0156-0.96875-0.0117-1.457-0.0312l0.38281-0.9375c0.48828 0.0156 0.97656-8e-3 1.4648 0.0234l-0.39062 0.94531"/>
   <path d="m150.19 183.86-2.7148-0.0117 0.78906-1.9727 2.7188 0.0234-0.79297 1.9609"/>
   <path d="m145.1 182.48 0.58985-1.4922 2.3945 4e-3 -0.60157 1.5039-2.3828-0.0156"/>
   <path d="m144.98 181.11-1.9219-0.0156 0.44532-1.125c0.64062 0 1.2852-0.0234 1.9336 0l-0.45703 1.1406"/>
   <path d="m152.06 187.35c-0.95703 0.0234-1.918 0.0391-2.8789 0.043l0.9375-2.3164 2.8633-0.0117-0.92187 2.2852"/>
   <path d="m150.98 190.01-2.8711 0.0391-0.0156-8e-3 0.92968-2.3164 2.8945-0.043-0.9375 2.3281"/>
   <path d="m136.37 185.81 0.31641-0.80078 1.1055-0.0391-0.32422 0.82421-1.0977 0.0156"/>
   <path d="m147.04 192.68 0.92578-2.3086 2.875-0.0352-0.91797 2.3125-2.8828 0.0312"/>
   <path d="m139.59 187.47-1.457-0.0195 0.38281-0.9375c0.48828 0.0156 0.97265-8e-3 1.4609 0.0234l-0.38672 0.93359"/>
   <path d="m146.91 191.97-2.7148-0.0195 0.78125-1.9609 2.7226 0.0234-0.78906 1.957"/>
   <path d="m144.2 190.63-2.3711-8e-3 -0.0195-8e-3 0.60547-1.4883 2.3906 4e-3 -0.60547 1.5"/>
   <path d="m141.69 189.26-1.918-0.0195 0.44141-1.125c0.64843-8e-3 1.3008-4e-3 1.9492 8e-3l-0.47266 1.1367"/>
   <path d="m148.84 195.33-0.0117 0.0273-2.875 0.0352 0.94141-2.3711 2.8906-0.0312-0.94532 2.3398"/>
   <path d="m147.76 198-2.8828 0.0703-0.0195-8e-3 0.95703-2.3477 2.8711-0.0273-0.92578 2.3125"/>
   <path d="m134.17 193.94c-0.36328-0.0117-0.72656 0.0234-1.0898 0l0.31641-0.77344c0.37109-0.0312 0.74219-0.0234 1.1172-0.0391l-0.34375 0.8125"/>
   <path d="m146.61 200.84c-0.96094-0.0234-1.918-0.0312-2.8828 0.0469l1.0039-2.4922 2.8945-0.0508-1.0156 2.4961"/>
   <path d="m136.31 195.62-1.4688 8e-3 0.36328-0.93359c0.4961 0 0.98438-0.0156 1.4805-4e-3l-0.375 0.92969"/>
   <path d="m143.65 200.04-2.7031-0.03906 0.79297-1.957 2.7031 0.0273-0.79297 1.9688"/>
   <path d="m138.57 198.67 0.60546-1.5078 2.3789 0.0156-0.60547 1.5117-2.3789-0.0195"/>
   <path d="m164.05 188.08c-1.0039-1.1445-2.3984-1.957-3.9414-2.4688l-2.4141 5.9727c1.5391 0.56641 2.8984 1.3438 3.9922 2.3398zm-3.1328 7.793c-1.0117-1.0898-2.4609-1.8633-3.9844-2.4062l-2.4531 6.1016c1.4961 0.58984 2.8984 1.2891 4.0391 2.2266zm6.2031-8.4883-7.668 18.977c-1.9883-2.7109-5.4453-4.4219-8.918-5.0703-1.1953-0.21875-2.3945-0.38281-3.5898-0.42969l1.0039-2.4688c1.5312 0.043 3.0664 0.22266 4.5977 0.60547l2.4766-6.1367c-1.5703-0.3789-3.1367-0.42578-4.6992-0.33984l0.80469-2.0156c1.5469-0.0312 3.0977 0.0664 4.6484 0.49218l2.3906-5.9102c-1.5664-0.30469-3.1328-0.41407-4.6914-0.35938l1.0703-2.6719c3.5547-0.0156 7.668 0.97656 10.582 3.3359 0.73828 0.58594 1.418 1.2344 1.9922 1.9922"/>
  </g>
  <path d="m3982.8 311.53c98.773 0 165.32 64.333 165.32 153.75 0 80.189-75.382 151.93-170.26 151.93-89.026 0-153.62-62.383-153.62-145.3 0-94.095 68.492-160.38 158.56-160.38zm181.95 246.02v11.177c0 187.28-71.482 286.05-198.59 286.05-62.643 0-110.6-29.762-144.91-89.416l-68.362 23.264c36.13 85.777 110.47 130.49 220.03 130.49 162.46 0 273.97-135.16 273.97-357.8 0-200.41-100.72-315.04-266.17-315.04-74.209 0-143.74 29.892-187.8 81.098-36.13 41.979-55.756 94.225-55.756 144.52 0 122.04 96.824 212.36 224.06 212.36 89.934 0 164.41-45.618 203.52-126.72"/>
  <path d="m433.31 906.77h175.97l81.361-330.76 84.218 330.76h172.33l166.49-578.74h-147.64l-88.637 333.49-86.815-335.7h-160.25l-84.607 338.95-85.907-338.95h-192.09l165.58 580.95"/>
  <path d="m1306.4 907.03 170.78-0.25951v-268.12c0-40.679 18.715-61.994 48.996-61.994 29.373 0 44.709 26.383 44.709 67.062v263.31l172.6-0.25951v-286.83c0-110.34-41.849-161.16-147.9-161.16-60.564 0-105.92 25.473-130.88 73.821v-61.994l-158.17 0.38927-0.2496 436.03"/>
  <path d="m2798.9 907.03h127.37l65.373-243.69 59.394 243.69h129.19l146.34-436.29h-123.73l-65.111 219.77-57.056-219.77h-133.61l-55.234 213.79-63.162-213.79h-174.67l144.91 436.29"/>
  <path d="m1099 435.77h172.85v-107.74h-172.85z"/>
  <path d="m1099 906.77h172.85v-436.16h-172.85z"/>
  <path d="m3260.7 781.61c25.864 86.817 110.34 134.9 244.47 134.9 148.03 0 238.23-66.542 238.23-155.05 0-36.131-14.817-67.322-43.279-90.976-34.96-28.593-76.29-34.441-126.85-42.889-87.337-14.296-130.88-10.917-130.49-37.95 0.2496-14.426 17.415-30.152 52.377-30.152 43.147 0 70.7 14.166 87.337 41.199l141.53-22.874c-31.192-74.86-107.48-116.06-219.64-116.06-139.84 0-220.68 63.943-220.68 149.85 0 37.04 19.237 72.391 52.377 96.045 41.328 29.372 87.337 36.131 139.71 44.578 65.243 10.917 100.21 7.7979 102.93 31.972 2.0711 16.765-22.872 29.502-66.152 29.502-60.694 0-94.616-16.895-102.93-48.867l-148.94 16.765"/>
  <path d="m2038.9 722.61c0 21.444 1.8216 36.91-10.917 55.885-10.006 14.556-21.834 22.354-40.03 22.354-56.534 0-64.332-68.752-64.203-107.48 0.2496-80.838 23.653-128.02 65.113-128.15 14.555 0 30.932 6.1083 39.119 17.285 11.828 13.776 10.917 34.311 10.917 51.596zm177.66 184.03v-589.78h-175.45v186.5c-28.205-26.643-66.413-44.708-111.12-44.708-140.23 0-188.06 117.75-188.06 230.43 0 108.26 48.736 226.14 182.6 226.14 58.354 0 97.473-18.975 123.86-67.062h1.8216v58.484h166.36"/>
  <path d="m2465.3 810.47c-42.76 0-70.573-39.249-70.573-120.87 0-81.748 27.554-120.87 70.441-120.87 42.89 0 70.443 39.12 70.443 120.87 0 81.619-27.424 120.87-70.311 120.87zm-0.2495 109.69c149.2 0 248.36-92.666 248.36-230.56 0-138.8-99.165-230.69-248.36-230.69-148.29 0-248.24 91.886-248.24 230.69 0 137.89 99.943 230.56 248.24 230.56"/>
  <path d="m0 326.08h36.909v-287.87l115.67 287.87h30.281l117.1-286.05v286.05h41.72v-321.53h-62.254l-107.87 269.94-108.91-269.94h-62.643v321.53"/>
  <path d="m402.76 39.51h39.119v-34.961h-39.119zm0 286.57h39.119v-238.75h-39.119z"/>
  <path d="m751.72 326.08h39.509v-121c0-54.716 32.362-88.247 82.788-88.247h6.6276v-35.481c-5.068-0.38927-9.7468-0.9108-14.296-0.9108-36.519 0-61.213 19.885-77.198 59.784v-52.896h-37.43v238.75"/>
  <path d="m1005.4 330.24c70.314 0 119.18-48.737 119.18-124.64 0-76.29-48.866-124.64-119.18-124.64-69.919 0-118.27 48.347-118.27 124.64 0 75.9 48.347 124.64 118.27 124.64zm0-29.372c-45.228 0-75.509-35.091-75.509-95.265 0-60.694 29.762-95.265 75.509-95.265 45.75 0 76.03 34.961 76.03 95.265 0 59.784-30.802 95.265-76.03 95.265"/>
  <path d="m1510.1 330.24c70.441 0 119.31-48.737 119.31-124.64 0-76.29-48.869-124.64-119.31-124.64-69.792 0-118.14 48.347-118.14 124.64 0 75.9 48.347 124.64 118.14 124.64zm0-29.372c-45.098 0-75.509-35.091-75.509-95.265 0-60.694 29.892-95.265 75.509-95.265 45.747 0 76.16 34.961 76.16 95.265 0 59.784-30.932 95.265-76.16 95.265"/>
  <path d="m1733.6 87.337c0-2.7294-0.5241-5.9786-0.5241-8.7077 0-33.531 14.815-49.127 47.177-49.127 7.2789 0 18.066 0.77854 31.973 3.1192v-29.372c-12.866-2.3381-25.734-3.2492-39.119-3.2492-53.418 0-78.631 28.073-78.631 85.517v1.8191h-46.788v25.863h46.788v212.88h39.12v-212.88h99.684v125.03c0 30.282 0 52.376 10.787 66.153 14.947 19.755 36.522 28.073 67.843 28.073 10.787 0 22.094-1.4298 32.881-3.6392v-29.372c-9.7468 2.2084-18.974 2.5991-27.294 2.5991-40.028 0-44.706-18.715-44.706-62.903v-125.94h62.773v-25.863h-62.773v-59.784l-39.511 3.7692v56.015h-99.684"/>
  <path d="m667.89 170.26 36.911-5.0685c-8.7087-53.806-44.579-84.218-94.875-84.218-69.922 0-118.14 48.737-118.14 124.77 0 77.07 45.747 124.9 111.9 124.9 53.415 0 90.845-29.502 101.11-82.398l-35.351-6.1083c-8.1872 37.43-32.362 58.095-64.203 58.095-41.59 0-70.833-34.961-70.833-94.485 0-60.304 30.802-95.265 71.873-95.265 30.8 0 56.534 22.094 61.602 59.784"/>
  <path d="m1152.3 261.62c12.215 42.629 51.985 67.842 109.69 67.842 60.175 0 99.943-31.192 99.943-73.301 0-36.26-25.994-54.975-80.58-67.452-50.556-11.437-80.058-11.957-80.058-41.199 0-22.484 19.885-37.17 53.026-37.17 31.581 0 51.985 12.737 60.175 37.17l36.13-6.8881c-12.736-38.6-46.398-59.654-94.746-59.654-57.186 0-93.964 30.672-93.964 70.571 0 39.51 26.643 54.586 83.696 67.062 47.958 10.527 75.511 13.256 75.511 42.109 0 23.004-22.486 39.899-59.134 39.899-36.26 0-63.813-16.506-74.471-45.358l-35.219 6.3684"/>
  <path d="m4356.8 570.55c-109.43 39.769-163.24 95.135-163.24 167.92 0 105.92 110.6 180.65 267.6 180.65s263.44-73.82 263.44-182.6c0-50.427-25.862-99.034-68.232-128.15-24.821-16.505-39.249-24.303-95.005-49.517 87.729-29.112 133.22-79.539 133.22-147.51 0-100.07-90.845-165.19-230.3-165.19-141.53 0-237.58 68.102-237.58 168.05 0 69.922 42.239 120.48 130.09 156.35zm104.36-40.809c-90.975-20.405-147.77-66.932-147.77-122.3 0-60.174 60.954-100.07 153.88-100.07 93.056 0 151.93 38.86 151.93 100.07 0 59.264-45.49 95.135-158.04 122.3zm-9.3575 74.73c130.23 34.051 188.06 77.72 188.06 140.88 0 68.882-70.311 112.55-180.78 112.55-109.43 0-180.78-45.618-180.78-115.54 0-66.023 57.834-111.64 173.5-137.89"/>
 </g>
</svg>
