<svg xmlns="http://www.w3.org/2000/svg" viewBox="0 0 40 36" width="40" height="36" shape-rendering="crispEdges">
  <g fill="#000000">
    <rect x="14" y="0" width="1" height="1"/><rect x="15" y="0" width="1" height="1"/><rect x="16" y="0" width="1" height="1"/><rect x="17" y="0" width="1" height="1"/><rect x="18" y="0" width="1" height="1"/><rect x="19" y="0" width="1" height="1"/><rect x="20" y="0" width="1" height="1"/><rect x="21" y="0" width="1" height="1"/><rect x="22" y="0" width="1" height="1"/><rect x="23" y="0" width="1" height="1"/><rect x="24" y="0" width="1" height="1"/><rect x="25" y="0" width="1" height="1"/><rect x="26" y="0" width="1" height="1"/><rect x="12" y="1" width="1" height="1"/><rect x="13" y="1" width="1" height="1"/><rect x="14" y="1" width="1" height="1"/><rect x="26" y="1" width="1" height="1"/><rect x="27" y="1" width="1" height="1"/><rect x="11" y="2" width="1" height="1"/><rect x="12" y="2" width="1" height="1"/><rect x="27" y="2" width="1" height="1"/><rect x="28" y="2" width="1" height="1"/><rect x="8" y="3" width="1" height="1"/><rect x="9" y="3" width="1" height="1"/><rect x="10" y="3" width="1" height="1"/><rect x="11" y="3" width="1" height="1"/><rect x="14" y="3" width="1" height="1"/><rect x="16" y="3" width="1" height="1"/><rect x="18" y="3" width="1" height="1"/><rect x="20" y="3" width="1" height="1"/><rect x="22" y="3" width="1" height="1"/><rect x="24" y="3" width="1" height="1"/><rect x="28" y="3" width="1" height="1"/><rect x="29" y="3" width="1" height="1"/><rect x="8" y="4" width="1" height="1"/><rect x="10" y="4" width="1" height="1"/><rect x="29" y="4" width="1" height="1"/><rect x="8" y="5" width="1" height="1"/><rect x="9" y="5" width="1" height="1"/><rect x="10" y="5" width="1" height="1"/><rect x="11" y="5" width="1" height="1"/><rect x="12" y="5" width="1" height="1"/><rect x="27" y="5" width="1" height="1"/><rect x="28" y="5" width="1" height="1"/><rect x="29" y="5" width="1" height="1"/><rect x="12" y="6" width="1" height="1"/><rect x="13" y="6" width="1" height="1"/><rect x="14" y="6" width="1" height="1"/><rect x="15" y="6" width="1" height="1"/><rect x="16" y="6" width="1" height="1"/><rect x="17" y="6" width="1" height="1"/><rect x="18" y="6" width="1" height="1"/><rect x="19" y="6" width="1" height="1"/><rect x="20" y="6" width="1" height="1"/><rect x="21" y="6" width="1" height="1"/><rect x="22" y="6" width="1" height="1"/><rect x="23" y="6" width="1" height="1"/><rect x="24" y="6" width="1" height="1"/><rect x="25" y="6" width="1" height="1"/><rect x="26" y="6" width="1" height="1"/><rect x="27" y="6" width="1" height="1"/><rect x="7" y="7" width="1" height="1"/><rect x="8" y="7" width="1" height="1"/><rect x="9" y="7" width="1" height="1"/><rect x="10" y="7" width="1" height="1"/><rect x="11" y="7" width="1" height="1"/><rect x="12" y="7" width="1" height="1"/><rect x="27" y="7" width="1" height="1"/><rect x="28" y="7" width="1" height="1"/><rect x="29" y="7" width="1" height="1"/><rect x="30" y="7" width="1" height="1"/><rect x="31" y="7" width="1" height="1"/><rect x="32" y="7" width="1" height="1"/><rect x="33" y="7" width="1" height="1"/><rect x="6" y="8" width="1" height="1"/><rect x="7" y="8" width="1" height="1"/><rect x="33" y="8" width="1" height="1"/><rect x="4" y="9" width="1" height="1"/><rect x="5" y="9" width="1" height="1"/><rect x="6" y="9" width="1" height="1"/><rect x="33" y="9" width="1" height="1"/><rect x="3" y="10" width="1" height="1"/><rect x="4" y="10" width="1" height="1"/><rect x="9" y="10" width="1" height="1"/><rect x="12" y="10" width="1" height="1"/><rect x="15" y="10" width="1" height="1"/><rect x="18" y="10" width="1" height="1"/><rect x="21" y="10" width="1" height="1"/><rect x="24" y="10" width="1" height="1"/><rect x="27" y="10" width="1" height="1"/><rect x="31" y="10" width="1" height="1"/><rect x="32" y="10" width="1" height="1"/><rect x="33" y="10" width="1" height="1"/><rect x="0" y="11" width="1" height="1"/><rect x="1" y="11" width="1" height="1"/><rect x="2" y="11" width="1" height="1"/><rect x="3" y="11" width="1" height="1"/><rect x="31" y="11" width="1" height="1"/><rect x="0" y="12" width="1" height="1"/><rect x="2" y="12" width="1" height="1"/><rect x="3" y="12" width="1" height="1"/><rect x="4" y="12" width="1" height="1"/><rect x="5" y="12" width="1" height="1"/><rect x="6" y="12" width="1" height="1"/><rect x="7" y="12" width="1" height="1"/><rect x="8" y="12" width="1" height="1"/><rect x="9" y="12" width="1" height="1"/><rect x="10" y="12" width="1" height="1"/><rect x="11" y="12" width="1" height="1"/><rect x="12" y="12" width="1" height="1"/><rect x="13" y="12" width="1" height="1"/><rect x="14" y="12" width="1" height="1"/><rect x="15" y="12" width="1" height="1"/><rect x="16" y="12" width="1" height="1"/><rect x="17" y="12" width="1" height="1"/><rect x="18" y="12" width="1" height="1"/><rect x="19" y="12" width="1" height="1"/><rect x="20" y="12" width="1" height="1"/><rect x="21" y="12" width="1" height="1"/><rect x="22" y="12" width="1" height="1"/><rect x="23" y="12" width="1" height="1"/><rect x="24" y="12" width="1" height="1"/><rect x="25" y="12" width="1" height="1"/><rect x="26" y="12" width="1" height="1"/><rect x="27" y="12" width="1" height="1"/><rect x="28" y="12" width="1" height="1"/><rect x="29" y="12" width="1" height="1"/><rect x="30" y="12" width="1" height="1"/><rect x="31" y="12" width="1" height="1"/><rect x="32" y="12" width="1" height="1"/><rect x="33" y="12" width="1" height="1"/><rect x="34" y="12" width="1" height="1"/><rect x="35" y="12" width="1" height="1"/><rect x="36" y="12" width="1" height="1"/><rect x="1" y="13" width="1" height="1"/><rect x="2" y="13" width="1" height="1"/><rect x="36" y="13" width="1" height="1"/><rect x="37" y="13" width="1" height="1"/><rect x="0" y="14" width="1" height="1"/><rect x="2" y="14" width="1" height="1"/><rect x="13" y="14" width="1" height="1"/><rect x="14" y="14" width="1" height="1"/><rect x="15" y="14" width="1" height="1"/><rect x="16" y="14" width="1" height="1"/><rect x="17" y="14" width="1" height="1"/><rect x="18" y="14" width="1" height="1"/><rect x="19" y="14" width="1" height="1"/><rect x="20" y="14" width="1" height="1"/><rect x="21" y="14" width="1" height="1"/><rect x="22" y="14" width="1" height="1"/><rect x="23" y="14" width="1" height="1"/><rect x="24" y="14" width="1" height="1"/><rect x="25" y="14" width="1" height="1"/><rect x="26" y="14" width="1" height="1"/><rect x="37" y="14" width="1" height="1"/><rect x="1" y="15" width="1" height="1"/><rect x="2" y="15" width="1" height="1"/><rect x="12" y="15" width="1" height="1"/><rect x="13" y="15" width="1" height="1"/><rect x="26" y="15" width="1" height="1"/><rect x="27" y="15" width="1" height="1"/><rect x="28" y="15" width="1" height="1"/><rect x="37" y="15" width="1" height="1"/><rect x="38" y="15" width="1" height="1"/><rect x="0" y="16" width="1" height="1"/><rect x="2" y="16" width="1" height="1"/><rect x="11" y="16" width="1" height="1"/><rect x="12" y="16" width="1" height="1"/><rect x="28" y="16" width="1" height="1"/><rect x="29" y="16" width="1" height="1"/><rect x="30" y="16" width="1" height="1"/><rect x="38" y="16" width="1" height="1"/><rect x="39" y="16" width="1" height="1"/><rect x="1" y="17" width="1" height="1"/><rect x="2" y="17" width="1" height="1"/><rect x="10" y="17" width="1" height="1"/><rect x="11" y="17" width="1" height="1"/><rect x="30" y="17" width="1" height="1"/><rect x="31" y="17" width="1" height="1"/><rect x="32" y="17" width="1" height="1"/><rect x="39" y="17" width="1" height="1"/><rect x="0" y="18" width="1" height="1"/><rect x="2" y="18" width="1" height="1"/><rect x="10" y="18" width="1" height="1"/><rect x="11" y="18" width="1" height="1"/><rect x="30" y="18" width="1" height="1"/><rect x="31" y="18" width="1" height="1"/><rect x="32" y="18" width="1" height="1"/><rect x="39" y="18" width="1" height="1"/><rect x="1" y="19" width="1" height="1"/><rect x="2" y="19" width="1" height="1"/><rect x="11" y="19" width="1" height="1"/><rect x="12" y="19" width="1" height="1"/><rect x="28" y="19" width="1" height="1"/><rect x="29" y="19" width="1" height="1"/><rect x="30" y="19" width="1" height="1"/><rect x="38" y="19" width="1" height="1"/><rect x="39" y="19" width="1" height="1"/><rect x="0" y="20" width="1" height="1"/><rect x="2" y="20" width="1" height="1"/><rect x="12" y="20" width="1" height="1"/><rect x="13" y="20" width="1" height="1"/><rect x="26" y="20" width="1" height="1"/><rect x="27" y="20" width="1" height="1"/><rect x="28" y="20" width="1" height="1"/><rect x="37" y="20" width="1" height="1"/><rect x="38" y="20" width="1" height="1"/><rect x="1" y="21" width="1" height="1"/><rect x="2" y="21" width="1" height="1"/><rect x="13" y="21" width="1" height="1"/><rect x="14" y="21" width="1" height="1"/><rect x="15" y="21" width="1" height="1"/><rect x="16" y="21" width="1" height="1"/><rect x="17" y="21" width="1" height="1"/><rect x="18" y="21" width="1" height="1"/><rect x="19" y="21" width="1" height="1"/><rect x="20" y="21" width="1" height="1"/><rect x="21" y="21" width="1" height="1"/><rect x="22" y="21" width="1" height="1"/><rect x="23" y="21" width="1" height="1"/><rect x="24" y="21" width="1" height="1"/><rect x="25" y="21" width="1" height="1"/><rect x="26" y="21" width="1" height="1"/><rect x="37" y="21" width="1" height="1"/><rect x="0" y="22" width="1" height="1"/><rect x="2" y="22" width="1" height="1"/><rect x="36" y="22" width="1" height="1"/><rect x="37" y="22" width="1" height="1"/><rect x="1" y="23" width="1" height="1"/><rect x="2" y="23" width="1" height="1"/><rect x="3" y="23" width="1" height="1"/><rect x="4" y="23" width="1" height="1"/><rect x="5" y="23" width="1" height="1"/><rect x="6" y="23" width="1" height="1"/><rect x="7" y="23" width="1" height="1"/><rect x="8" y="23" width="1" height="1"/><rect x="9" y="23" width="1" height="1"/><rect x="10" y="23" width="1" height="1"/><rect x="11" y="23" width="1" height="1"/><rect x="12" y="23" width="1" height="1"/><rect x="13" y="23" width="1" height="1"/><rect x="14" y="23" width="1" height="1"/><rect x="15" y="23" width="1" height="1"/><rect x="16" y="23" width="1" height="1"/><rect x="17" y="23" width="1" height="1"/><rect x="18" y="23" width="1" height="1"/><rect x="19" y="23" width="1" height="1"/><rect x="20" y="23" width="1" height="1"/><rect x="21" y="23" width="1" height="1"/><rect x="22" y="23" width="1" height="1"/><rect x="23" y="23" width="1" height="1"/><rect x="24" y="23" width="1" height="1"/><rect x="25" y="23" width="1" height="1"/><rect x="26" y="23" width="1" height="1"/><rect x="27" y="23" width="1" height="1"/><rect x="28" y="23" width="1" height="1"/><rect x="29" y="23" width="1" height="1"/><rect x="30" y="23" width="1" height="1"/><rect x="31" y="23" width="1" height="1"/><rect x="32" y="23" width="1" height="1"/><rect x="33" y="23" width="1" height="1"/><rect x="34" y="23" width="1" height="1"/><rect x="35" y="23" width="1" height="1"/><rect x="36" y="23" width="1" height="1"/><rect x="0" y="24" width="1" height="1"/><rect x="1" y="24" width="1" height="1"/><rect x="2" y="24" width="1" height="1"/><rect x="3" y="24" width="1" height="1"/><rect x="31" y="24" width="1" height="1"/><rect x="3" y="25" width="1" height="1"/><rect x="4" y="25" width="1" height="1"/><rect x="9" y="25" width="1" height="1"/><rect x="12" y="25" width="1" height="1"/><rect x="15" y="25" width="1" height="1"/><rect x="18" y="25" width="1" height="1"/><rect x="21" y="25" width="1" height="1"/><rect x="24" y="25" width="1" height="1"/><rect x="27" y="25" width="1" height="1"/><rect x="31" y="25" width="1" height="1"/><rect x="32" y="25" width="1" height="1"/><rect x="33" y="25" width="1" height="1"/><rect x="4" y="26" width="1" height="1"/><rect x="5" y="26" width="1" height="1"/><rect x="6" y="26" width="1" height="1"/><rect x="33" y="26" width="1" height="1"/><rect x="6" y="27" width="1" height="1"/><rect x="7" y="27" width="1" height="1"/><rect x="33" y="27" width="1" height="1"/><rect x="7" y="28" width="1" height="1"/><rect x="8" y="28" width="1" height="1"/><rect x="9" y="28" width="1" height="1"/><rect x="10" y="28" width="1" height="1"/><rect x="11" y="28" width="1" height="1"/><rect x="12" y="28" width="1" height="1"/><rect x="27" y="28" width="1" height="1"/><rect x="28" y="28" width="1" height="1"/><rect x="29" y="28" width="1" height="1"/><rect x="30" y="28" width="1" height="1"/><rect x="31" y="28" width="1" height="1"/><rect x="32" y="28" width="1" height="1"/><rect x="33" y="28" width="1" height="1"/><rect x="12" y="29" width="1" height="1"/><rect x="13" y="29" width="1" height="1"/><rect x="14" y="29" width="1" height="1"/><rect x="15" y="29" width="1" height="1"/><rect x="16" y="29" width="1" height="1"/><rect x="17" y="29" width="1" height="1"/><rect x="18" y="29" width="1" height="1"/><rect x="19" y="29" width="1" height="1"/><rect x="20" y="29" width="1" height="1"/><rect x="21" y="29" width="1" height="1"/><rect x="22" y="29" width="1" height="1"/><rect x="23" y="29" width="1" height="1"/><rect x="24" y="29" width="1" height="1"/><rect x="25" y="29" width="1" height="1"/><rect x="26" y="29" width="1" height="1"/><rect x="27" y="29" width="1" height="1"/><rect x="8" y="30" width="1" height="1"/><rect x="9" y="30" width="1" height="1"/><rect x="10" y="30" width="1" height="1"/><rect x="11" y="30" width="1" height="1"/><rect x="12" y="30" width="1" height="1"/><rect x="27" y="30" width="1" height="1"/><rect x="28" y="30" width="1" height="1"/><rect x="29" y="30" width="1" height="1"/><rect x="8" y="31" width="1" height="1"/><rect x="10" y="31" width="1" height="1"/><rect x="29" y="31" width="1" height="1"/><rect x="8" y="32" width="1" height="1"/><rect x="9" y="32" width="1" height="1"/><rect x="10" y="32" width="1" height="1"/><rect x="11" y="32" width="1" height="1"/><rect x="14" y="32" width="1" height="1"/><rect x="16" y="32" width="1" height="1"/><rect x="18" y="32" width="1" height="1"/><rect x="20" y="32" width="1" height="1"/><rect x="22" y="32" width="1" height="1"/><rect x="24" y="32" width="1" height="1"/><rect x="28" y="32" width="1" height="1"/><rect x="29" y="32" width="1" height="1"/><rect x="11" y="33" width="1" height="1"/><rect x="12" y="33" width="1" height="1"/><rect x="27" y="33" width="1" height="1"/><rect x="28" y="33" width="1" height="1"/><rect x="12" y="34" width="1" height="1"/><rect x="13" y="34" width="1" height="1"/><rect x="14" y="34" width="1" height="1"/><rect x="26" y="34" width="1" height="1"/><rect x="27" y="34" width="1" height="1"/><rect x="14" y="35" width="1" height="1"/><rect x="15" y="35" width="1" height="1"/><rect x="16" y="35" width="1" height="1"/><rect x="17" y="35" width="1" height="1"/><rect x="18" y="35" width="1" height="1"/><rect x="19" y="35" width="1" height="1"/><rect x="20" y="35" width="1" height="1"/><rect x="21" y="35" width="1" height="1"/><rect x="22" y="35" width="1" height="1"/><rect x="23" y="35" width="1" height="1"/><rect x="24" y="35" width="1" height="1"/><rect x="25" y="35" width="1" height="1"/><rect x="26" y="35" width="1" height="1"/>
  </g>
</svg>