<svg xmlns="http://www.w3.org/2000/svg" viewBox="0 0 50 40" width="50" height="40" shape-rendering="crispEdges">
  <g fill="#000000">
    <rect x="3" y="0" width="1" height="1"/><rect x="4" y="0" width="1" height="1"/><rect x="5" y="0" width="1" height="1"/><rect x="6" y="0" width="1" height="1"/><rect x="7" y="0" width="1" height="1"/><rect x="8" y="0" width="1" height="1"/><rect x="9" y="0" width="1" height="1"/><rect x="10" y="0" width="1" height="1"/><rect x="11" y="0" width="1" height="1"/><rect x="12" y="0" width="1" height="1"/><rect x="13" y="0" width="1" height="1"/><rect x="14" y="0" width="1" height="1"/><rect x="15" y="0" width="1" height="1"/><rect x="16" y="0" width="1" height="1"/><rect x="17" y="0" width="1" height="1"/><rect x="18" y="0" width="1" height="1"/><rect x="19" y="0" width="1" height="1"/><rect x="20" y="0" width="1" height="1"/><rect x="21" y="0" width="1" height="1"/><rect x="22" y="0" width="1" height="1"/><rect x="23" y="0" width="1" height="1"/><rect x="24" y="0" width="1" height="1"/><rect x="25" y="0" width="1" height="1"/><rect x="26" y="0" width="1" height="1"/><rect x="27" y="0" width="1" height="1"/><rect x="28" y="0" width="1" height="1"/><rect x="29" y="0" width="1" height="1"/><rect x="30" y="0" width="1" height="1"/><rect x="31" y="0" width="1" height="1"/><rect x="32" y="0" width="1" height="1"/><rect x="33" y="0" width="1" height="1"/><rect x="34" y="0" width="1" height="1"/><rect x="3" y="1" width="1" height="1"/><rect x="21" y="1" width="1" height="1"/><rect x="22" y="1" width="1" height="1"/><rect x="23" y="1" width="1" height="1"/><rect x="24" y="1" width="1" height="1"/><rect x="3" y="2" width="1" height="1"/><rect x="19" y="2" width="1" height="1"/><rect x="20" y="2" width="1" height="1"/><rect x="21" y="2" width="1" height="1"/><rect x="3" y="3" width="1" height="1"/><rect x="16" y="3" width="1" height="1"/><rect x="17" y="3" width="1" height="1"/><rect x="18" y="3" width="1" height="1"/><rect x="19" y="3" width="1" height="1"/><rect x="3" y="4" width="1" height="1"/><rect x="15" y="4" width="1" height="1"/><rect x="16" y="4" width="1" height="1"/><rect x="2" y="5" width="1" height="1"/><rect x="3" y="5" width="1" height="1"/><rect x="15" y="5" width="1" height="1"/><rect x="0" y="6" width="1" height="1"/><rect x="1" y="6" width="1" height="1"/><rect x="2" y="6" width="1" height="1"/><rect x="3" y="6" width="1" height="1"/><rect x="4" y="6" width="1" height="1"/><rect x="5" y="6" width="1" height="1"/><rect x="6" y="6" width="1" height="1"/><rect x="7" y="6" width="1" height="1"/><rect x="8" y="6" width="1" height="1"/><rect x="9" y="6" width="1" height="1"/><rect x="10" y="6" width="1" height="1"/><rect x="11" y="6" width="1" height="1"/><rect x="12" y="6" width="1" height="1"/><rect x="13" y="6" width="1" height="1"/><rect x="14" y="6" width="1" height="1"/><rect x="15" y="6" width="1" height="1"/><rect x="16" y="6" width="1" height="1"/><rect x="0" y="7" width="1" height="1"/><rect x="2" y="7" width="1" height="1"/><rect x="16" y="7" width="1" height="1"/><rect x="1" y="8" width="1" height="1"/><rect x="2" y="8" width="1" height="1"/><rect x="7" y="8" width="1" height="1"/><rect x="8" y="8" width="1" height="1"/><rect x="9" y="8" width="1" height="1"/><rect x="10" y="8" width="1" height="1"/><rect x="11" y="8" width="1" height="1"/><rect x="12" y="8" width="1" height="1"/><rect x="13" y="8" width="1" height="1"/><rect x="16" y="8" width="1" height="1"/><rect x="17" y="8" width="1" height="1"/><rect x="0" y="9" width="1" height="1"/><rect x="2" y="9" width="1" height="1"/><rect x="17" y="9" width="1" height="1"/><rect x="18" y="9" width="1" height="1"/><rect x="19" y="9" width="1" height="1"/><rect x="1" y="10" width="1" height="1"/><rect x="2" y="10" width="1" height="1"/><rect x="19" y="10" width="1" height="1"/><rect x="20" y="10" width="1" height="1"/><rect x="0" y="11" width="1" height="1"/><rect x="1" y="11" width="1" height="1"/><rect x="2" y="11" width="1" height="1"/><rect x="7" y="11" width="1" height="1"/><rect x="8" y="11" width="1" height="1"/><rect x="9" y="11" width="1" height="1"/><rect x="10" y="11" width="1" height="1"/><rect x="11" y="11" width="1" height="1"/><rect x="12" y="11" width="1" height="1"/><rect x="13" y="11" width="1" height="1"/><rect x="20" y="11" width="1" height="1"/><rect x="21" y="11" width="1" height="1"/><rect x="22" y="11" width="1" height="1"/><rect x="23" y="11" width="1" height="1"/><rect x="24" y="11" width="1" height="1"/><rect x="0" y="12" width="1" height="1"/><rect x="1" y="12" width="1" height="1"/><rect x="2" y="12" width="1" height="1"/><rect x="6" y="12" width="1" height="1"/><rect x="7" y="12" width="1" height="1"/><rect x="13" y="12" width="1" height="1"/><rect x="14" y="12" width="1" height="1"/><rect x="15" y="12" width="1" height="1"/><rect x="24" y="12" width="1" height="1"/><rect x="25" y="12" width="1" height="1"/><rect x="26" y="12" width="1" height="1"/><rect x="27" y="12" width="1" height="1"/><rect x="28" y="12" width="1" height="1"/><rect x="1" y="13" width="1" height="1"/><rect x="2" y="13" width="1" height="1"/><rect x="5" y="13" width="1" height="1"/><rect x="6" y="13" width="1" height="1"/><rect x="15" y="13" width="1" height="1"/><rect x="16" y="13" width="1" height="1"/><rect x="28" y="13" width="1" height="1"/><rect x="29" y="13" width="1" height="1"/><rect x="30" y="13" width="1" height="1"/><rect x="0" y="14" width="1" height="1"/><rect x="1" y="14" width="1" height="1"/><rect x="2" y="14" width="1" height="1"/><rect x="4" y="14" width="1" height="1"/><rect x="5" y="14" width="1" height="1"/><rect x="16" y="14" width="1" height="1"/><rect x="17" y="14" width="1" height="1"/><rect x="18" y="14" width="1" height="1"/><rect x="30" y="14" width="1" height="1"/><rect x="31" y="14" width="1" height="1"/><rect x="32" y="14" width="1" height="1"/><rect x="1" y="15" width="1" height="1"/><rect x="2" y="15" width="1" height="1"/><rect x="4" y="15" width="1" height="1"/><rect x="18" y="15" width="1" height="1"/><rect x="19" y="15" width="1" height="1"/><rect x="20" y="15" width="1" height="1"/><rect x="21" y="15" width="1" height="1"/><rect x="22" y="15" width="1" height="1"/><rect x="23" y="15" width="1" height="1"/><rect x="24" y="15" width="1" height="1"/><rect x="25" y="15" width="1" height="1"/><rect x="26" y="15" width="1" height="1"/><rect x="27" y="15" width="1" height="1"/><rect x="32" y="15" width="1" height="1"/><rect x="33" y="15" width="1" height="1"/><rect x="34" y="15" width="1" height="1"/><rect x="35" y="15" width="1" height="1"/><rect x="0" y="16" width="1" height="1"/><rect x="2" y="16" width="1" height="1"/><rect x="4" y="16" width="1" height="1"/><rect x="27" y="16" width="1" height="1"/><rect x="28" y="16" width="1" height="1"/><rect x="29" y="16" width="1" height="1"/><rect x="30" y="16" width="1" height="1"/><rect x="35" y="16" width="1" height="1"/><rect x="36" y="16" width="1" height="1"/><rect x="37" y="16" width="1" height="1"/><rect x="38" y="16" width="1" height="1"/><rect x="39" y="16" width="1" height="1"/><rect x="1" y="17" width="1" height="1"/><rect x="2" y="17" width="1" height="1"/><rect x="4" y="17" width="1" height="1"/><rect x="5" y="17" width="1" height="1"/><rect x="7" y="17" width="1" height="1"/><rect x="9" y="17" width="1" height="1"/><rect x="11" y="17" width="1" height="1"/><rect x="13" y="17" width="1" height="1"/><rect x="15" y="17" width="1" height="1"/><rect x="17" y="17" width="1" height="1"/><rect x="19" y="17" width="1" height="1"/><rect x="21" y="17" width="1" height="1"/><rect x="23" y="17" width="1" height="1"/><rect x="25" y="17" width="1" height="1"/><rect x="30" y="17" width="1" height="1"/><rect x="31" y="17" width="1" height="1"/><rect x="32" y="17" width="1" height="1"/><rect x="39" y="17" width="1" height="1"/><rect x="40" y="17" width="1" height="1"/><rect x="41" y="17" width="1" height="1"/><rect x="42" y="17" width="1" height="1"/><rect x="43" y="17" width="1" height="1"/><rect x="0" y="18" width="1" height="1"/><rect x="2" y="18" width="1" height="1"/><rect x="4" y="18" width="1" height="1"/><rect x="32" y="18" width="1" height="1"/><rect x="33" y="18" width="1" height="1"/><rect x="34" y="18" width="1" height="1"/><rect x="43" y="18" width="1" height="1"/><rect x="44" y="18" width="1" height="1"/><rect x="45" y="18" width="1" height="1"/><rect x="46" y="18" width="1" height="1"/><rect x="47" y="18" width="1" height="1"/><rect x="48" y="18" width="1" height="1"/><rect x="49" y="18" width="1" height="1"/><rect x="1" y="19" width="1" height="1"/><rect x="2" y="19" width="1" height="1"/><rect x="4" y="19" width="1" height="1"/><rect x="34" y="19" width="1" height="1"/><rect x="35" y="19" width="1" height="1"/><rect x="36" y="19" width="1" height="1"/><rect x="49" y="19" width="1" height="1"/><rect x="0" y="20" width="1" height="1"/><rect x="2" y="20" width="1" height="1"/><rect x="4" y="20" width="1" height="1"/><rect x="34" y="20" width="1" height="1"/><rect x="35" y="20" width="1" height="1"/><rect x="36" y="20" width="1" height="1"/><rect x="49" y="20" width="1" height="1"/><rect x="1" y="21" width="1" height="1"/><rect x="2" y="21" width="1" height="1"/><rect x="4" y="21" width="1" height="1"/><rect x="32" y="21" width="1" height="1"/><rect x="33" y="21" width="1" height="1"/><rect x="34" y="21" width="1" height="1"/><rect x="43" y="21" width="1" height="1"/><rect x="44" y="21" width="1" height="1"/><rect x="45" y="21" width="1" height="1"/><rect x="46" y="21" width="1" height="1"/><rect x="47" y="21" width="1" height="1"/><rect x="48" y="21" width="1" height="1"/><rect x="49" y="21" width="1" height="1"/><rect x="0" y="22" width="1" height="1"/><rect x="2" y="22" width="1" height="1"/><rect x="4" y="22" width="1" height="1"/><rect x="5" y="22" width="1" height="1"/><rect x="7" y="22" width="1" height="1"/><rect x="9" y="22" width="1" height="1"/><rect x="11" y="22" width="1" height="1"/><rect x="13" y="22" width="1" height="1"/><rect x="15" y="22" width="1" height="1"/><rect x="17" y="22" width="1" height="1"/><rect x="19" y="22" width="1" height="1"/><rect x="21" y="22" width="1" height="1"/><rect x="23" y="22" width="1" height="1"/><rect x="25" y="22" width="1" height="1"/><rect x="30" y="22" width="1" height="1"/><rect x="31" y="22" width="1" height="1"/><rect x="32" y="22" width="1" height="1"/><rect x="39" y="22" width="1" height="1"/><rect x="40" y="22" width="1" height="1"/><rect x="41" y="22" width="1" height="1"/><rect x="42" y="22" width="1" height="1"/><rect x="43" y="22" width="1" height="1"/><rect x="1" y="23" width="1" height="1"/><rect x="2" y="23" width="1" height="1"/><rect x="4" y="23" width="1" height="1"/><rect x="27" y="23" width="1" height="1"/><rect x="28" y="23" width="1" height="1"/><rect x="29" y="23" width="1" height="1"/><rect x="30" y="23" width="1" height="1"/><rect x="35" y="23" width="1" height="1"/><rect x="36" y="23" width="1" height="1"/><rect x="37" y="23" width="1" height="1"/><rect x="38" y="23" width="1" height="1"/><rect x="39" y="23" width="1" height="1"/><rect x="0" y="24" width="1" height="1"/><rect x="2" y="24" width="1" height="1"/><rect x="4" y="24" width="1" height="1"/><rect x="18" y="24" width="1" height="1"/><rect x="19" y="24" width="1" height="1"/><rect x="20" y="24" width="1" height="1"/><rect x="21" y="24" width="1" height="1"/><rect x="22" y="24" width="1" height="1"/><rect x="23" y="24" width="1" height="1"/><rect x="24" y="24" width="1" height="1"/><rect x="25" y="24" width="1" height="1"/><rect x="26" y="24" width="1" height="1"/><rect x="27" y="24" width="1" height="1"/><rect x="32" y="24" width="1" height="1"/><rect x="33" y="24" width="1" height="1"/><rect x="34" y="24" width="1" height="1"/><rect x="35" y="24" width="1" height="1"/><rect x="1" y="25" width="1" height="1"/><rect x="2" y="25" width="1" height="1"/><rect x="4" y="25" width="1" height="1"/><rect x="5" y="25" width="1" height="1"/><rect x="16" y="25" width="1" height="1"/><rect x="17" y="25" width="1" height="1"/><rect x="18" y="25" width="1" height="1"/><rect x="30" y="25" width="1" height="1"/><rect x="31" y="25" width="1" height="1"/><rect x="32" y="25" width="1" height="1"/><rect x="0" y="26" width="1" height="1"/><rect x="1" y="26" width="1" height="1"/><rect x="2" y="26" width="1" height="1"/><rect x="5" y="26" width="1" height="1"/><rect x="6" y="26" width="1" height="1"/><rect x="15" y="26" width="1" height="1"/><rect x="16" y="26" width="1" height="1"/><rect x="28" y="26" width="1" height="1"/><rect x="29" y="26" width="1" height="1"/><rect x="30" y="26" width="1" height="1"/><rect x="0" y="27" width="1" height="1"/><rect x="1" y="27" width="1" height="1"/><rect x="2" y="27" width="1" height="1"/><rect x="6" y="27" width="1" height="1"/><rect x="7" y="27" width="1" height="1"/><rect x="13" y="27" width="1" height="1"/><rect x="14" y="27" width="1" height="1"/><rect x="15" y="27" width="1" height="1"/><rect x="24" y="27" width="1" height="1"/><rect x="25" y="27" width="1" height="1"/><rect x="26" y="27" width="1" height="1"/><rect x="27" y="27" width="1" height="1"/><rect x="28" y="27" width="1" height="1"/><rect x="1" y="28" width="1" height="1"/><rect x="2" y="28" width="1" height="1"/><rect x="7" y="28" width="1" height="1"/><rect x="8" y="28" width="1" height="1"/><rect x="9" y="28" width="1" height="1"/><rect x="10" y="28" width="1" height="1"/><rect x="11" y="28" width="1" height="1"/><rect x="12" y="28" width="1" height="1"/><rect x="13" y="28" width="1" height="1"/><rect x="20" y="28" width="1" height="1"/><rect x="21" y="28" width="1" height="1"/><rect x="22" y="28" width="1" height="1"/><rect x="23" y="28" width="1" height="1"/><rect x="24" y="28" width="1" height="1"/><rect x="0" y="29" width="1" height="1"/><rect x="1" y="29" width="1" height="1"/><rect x="2" y="29" width="1" height="1"/><rect x="19" y="29" width="1" height="1"/><rect x="20" y="29" width="1" height="1"/><rect x="1" y="30" width="1" height="1"/><rect x="2" y="30" width="1" height="1"/><rect x="17" y="30" width="1" height="1"/><rect x="18" y="30" width="1" height="1"/><rect x="19" y="30" width="1" height="1"/><rect x="0" y="31" width="1" height="1"/><rect x="2" y="31" width="1" height="1"/><rect x="7" y="31" width="1" height="1"/><rect x="8" y="31" width="1" height="1"/><rect x="9" y="31" width="1" height="1"/><rect x="10" y="31" width="1" height="1"/><rect x="11" y="31" width="1" height="1"/><rect x="12" y="31" width="1" height="1"/><rect x="13" y="31" width="1" height="1"/><rect x="16" y="31" width="1" height="1"/><rect x="17" y="31" width="1" height="1"/><rect x="1" y="32" width="1" height="1"/><rect x="2" y="32" width="1" height="1"/><rect x="16" y="32" width="1" height="1"/><rect x="0" y="33" width="1" height="1"/><rect x="1" y="33" width="1" height="1"/><rect x="2" y="33" width="1" height="1"/><rect x="3" y="33" width="1" height="1"/><rect x="4" y="33" width="1" height="1"/><rect x="5" y="33" width="1" height="1"/><rect x="6" y="33" width="1" height="1"/><rect x="7" y="33" width="1" height="1"/><rect x="8" y="33" width="1" height="1"/><rect x="9" y="33" width="1" height="1"/><rect x="10" y="33" width="1" height="1"/><rect x="11" y="33" width="1" height="1"/><rect x="12" y="33" width="1" height="1"/><rect x="13" y="33" width="1" height="1"/><rect x="14" y="33" width="1" height="1"/><rect x="15" y="33" width="1" height="1"/><rect x="16" y="33" width="1" height="1"/><rect x="2" y="34" width="1" height="1"/><rect x="3" y="34" width="1" height="1"/><rect x="15" y="34" width="1" height="1"/><rect x="3" y="35" width="1" height="1"/><rect x="15" y="35" width="1" height="1"/><rect x="16" y="35" width="1" height="1"/><rect x="3" y="36" width="1" height="1"/><rect x="16" y="36" width="1" height="1"/><rect x="17" y="36" width="1" height="1"/><rect x="18" y="36" width="1" height="1"/><rect x="19" y="36" width="1" height="1"/><rect x="3" y="37" width="1" height="1"/><rect x="19" y="37" width="1" height="1"/><rect x="20" y="37" width="1" height="1"/><rect x="21" y="37" width="1" height="1"/><rect x="3" y="38" width="1" height="1"/><rect x="21" y="38" width="1" height="1"/><rect x="22" y="38" width="1" height="1"/><rect x="23" y="38" width="1" height="1"/><rect x="24" y="38" width="1" height="1"/><rect x="3" y="39" width="1" height="1"/><rect x="4" y="39" width="1" height="1"/><rect x="5" y="39" width="1" height="1"/><rect x="6" y="39" width="1" height="1"/><rect x="7" y="39" width="1" height="1"/><rect x="8" y="39" width="1" height="1"/><rect x="9" y="39" width="1" height="1"/><rect x="10" y="39" width="1" height="1"/><rect x="11" y="39" width="1" height="1"/><rect x="12" y="39" width="1" height="1"/><rect x="13" y="39" width="1" height="1"/><rect x="14" y="39" width="1" height="1"/><rect x="15" y="39" width="1" height="1"/><rect x="16" y="39" width="1" height="1"/><rect x="17" y="39" width="1" height="1"/><rect x="18" y="39" width="1" height="1"/><rect x="19" y="39" width="1" height="1"/><rect x="20" y="39" width="1" height="1"/><rect x="21" y="39" width="1" height="1"/><rect x="22" y="39" width="1" height="1"/><rect x="23" y="39" width="1" height="1"/><rect x="24" y="39" width="1" height="1"/><rect x="25" y="39" width="1" height="1"/><rect x="26" y="39" width="1" height="1"/><rect x="27" y="39" width="1" height="1"/><rect x="28" y="39" width="1" height="1"/><rect x="29" y="39" width="1" height="1"/><rect x="30" y="39" width="1" height="1"/><rect x="31" y="39" width="1" height="1"/><rect x="32" y="39" width="1" height="1"/><rect x="33" y="39" width="1" height="1"/><rect x="34" y="39" width="1" height="1"/>
  </g>
</svg>