<svg xmlns="http://www.w3.org/2000/svg" viewBox="0 0 27 26" width="27" height="26" shape-rendering="crispEdges">
  <g fill="#000000">
    <rect x="2" y="0" width="1" height="1"/><rect x="3" y="0" width="1" height="1"/><rect x="4" y="0" width="1" height="1"/><rect x="5" y="0" width="1" height="1"/><rect x="6" y="0" width="1" height="1"/><rect x="7" y="0" width="1" height="1"/><rect x="8" y="0" width="1" height="1"/><rect x="9" y="0" width="1" height="1"/><rect x="10" y="0" width="1" height="1"/><rect x="11" y="0" width="1" height="1"/><rect x="12" y="0" width="1" height="1"/><rect x="13" y="0" width="1" height="1"/><rect x="14" y="0" width="1" height="1"/><rect x="15" y="0" width="1" height="1"/><rect x="16" y="0" width="1" height="1"/><rect x="17" y="0" width="1" height="1"/><rect x="18" y="0" width="1" height="1"/><rect x="19" y="0" width="1" height="1"/><rect x="20" y="0" width="1" height="1"/><rect x="21" y="0" width="1" height="1"/><rect x="3" y="1" width="1" height="1"/><rect x="14" y="1" width="1" height="1"/><rect x="15" y="1" width="1" height="1"/><rect x="16" y="1" width="1" height="1"/><rect x="17" y="1" width="1" height="1"/><rect x="3" y="2" width="1" height="1"/><rect x="4" y="2" width="1" height="1"/><rect x="14" y="2" width="1" height="1"/><rect x="4" y="3" width="1" height="1"/><rect x="5" y="3" width="1" height="1"/><rect x="6" y="3" width="1" height="1"/><rect x="7" y="3" width="1" height="1"/><rect x="8" y="3" width="1" height="1"/><rect x="9" y="3" width="1" height="1"/><rect x="10" y="3" width="1" height="1"/><rect x="11" y="3" width="1" height="1"/><rect x="12" y="3" width="1" height="1"/><rect x="13" y="3" width="1" height="1"/><rect x="14" y="3" width="1" height="1"/><rect x="4" y="4" width="1" height="1"/><rect x="14" y="4" width="1" height="1"/><rect x="4" y="5" width="1" height="1"/><rect x="14" y="5" width="1" height="1"/><rect x="4" y="6" width="1" height="1"/><rect x="7" y="6" width="1" height="1"/><rect x="8" y="6" width="1" height="1"/><rect x="9" y="6" width="1" height="1"/><rect x="10" y="6" width="1" height="1"/><rect x="11" y="6" width="1" height="1"/><rect x="14" y="6" width="1" height="1"/><rect x="15" y="6" width="1" height="1"/><rect x="4" y="7" width="1" height="1"/><rect x="7" y="7" width="1" height="1"/><rect x="11" y="7" width="1" height="1"/><rect x="15" y="7" width="1" height="1"/><rect x="16" y="7" width="1" height="1"/><rect x="17" y="7" width="1" height="1"/><rect x="0" y="8" width="1" height="1"/><rect x="1" y="8" width="1" height="1"/><rect x="2" y="8" width="1" height="1"/><rect x="3" y="8" width="1" height="1"/><rect x="4" y="8" width="1" height="1"/><rect x="7" y="8" width="1" height="1"/><rect x="11" y="8" width="1" height="1"/><rect x="12" y="8" width="1" height="1"/><rect x="17" y="8" width="1" height="1"/><rect x="0" y="9" width="1" height="1"/><rect x="2" y="9" width="1" height="1"/><rect x="7" y="9" width="1" height="1"/><rect x="12" y="9" width="1" height="1"/><rect x="17" y="9" width="1" height="1"/><rect x="18" y="9" width="1" height="1"/><rect x="1" y="10" width="1" height="1"/><rect x="2" y="10" width="1" height="1"/><rect x="7" y="10" width="1" height="1"/><rect x="12" y="10" width="1" height="1"/><rect x="13" y="10" width="1" height="1"/><rect x="14" y="10" width="1" height="1"/><rect x="18" y="10" width="1" height="1"/><rect x="19" y="10" width="1" height="1"/><rect x="20" y="10" width="1" height="1"/><rect x="0" y="11" width="1" height="1"/><rect x="2" y="11" width="1" height="1"/><rect x="7" y="11" width="1" height="1"/><rect x="14" y="11" width="1" height="1"/><rect x="20" y="11" width="1" height="1"/><rect x="21" y="11" width="1" height="1"/><rect x="22" y="11" width="1" height="1"/><rect x="23" y="11" width="1" height="1"/><rect x="24" y="11" width="1" height="1"/><rect x="25" y="11" width="1" height="1"/><rect x="26" y="11" width="1" height="1"/><rect x="1" y="12" width="1" height="1"/><rect x="2" y="12" width="1" height="1"/><rect x="7" y="12" width="1" height="1"/><rect x="14" y="12" width="1" height="1"/><rect x="17" y="12" width="1" height="1"/><rect x="18" y="12" width="1" height="1"/><rect x="26" y="12" width="1" height="1"/><rect x="0" y="13" width="1" height="1"/><rect x="2" y="13" width="1" height="1"/><rect x="7" y="13" width="1" height="1"/><rect x="14" y="13" width="1" height="1"/><rect x="17" y="13" width="1" height="1"/><rect x="18" y="13" width="1" height="1"/><rect x="26" y="13" width="1" height="1"/><rect x="1" y="14" width="1" height="1"/><rect x="2" y="14" width="1" height="1"/><rect x="7" y="14" width="1" height="1"/><rect x="14" y="14" width="1" height="1"/><rect x="20" y="14" width="1" height="1"/><rect x="21" y="14" width="1" height="1"/><rect x="22" y="14" width="1" height="1"/><rect x="23" y="14" width="1" height="1"/><rect x="24" y="14" width="1" height="1"/><rect x="25" y="14" width="1" height="1"/><rect x="26" y="14" width="1" height="1"/><rect x="0" y="15" width="1" height="1"/><rect x="2" y="15" width="1" height="1"/><rect x="7" y="15" width="1" height="1"/><rect x="12" y="15" width="1" height="1"/><rect x="13" y="15" width="1" height="1"/><rect x="14" y="15" width="1" height="1"/><rect x="18" y="15" width="1" height="1"/><rect x="19" y="15" width="1" height="1"/><rect x="20" y="15" width="1" height="1"/><rect x="1" y="16" width="1" height="1"/><rect x="2" y="16" width="1" height="1"/><rect x="7" y="16" width="1" height="1"/><rect x="12" y="16" width="1" height="1"/><rect x="17" y="16" width="1" height="1"/><rect x="18" y="16" width="1" height="1"/><rect x="0" y="17" width="1" height="1"/><rect x="1" y="17" width="1" height="1"/><rect x="2" y="17" width="1" height="1"/><rect x="3" y="17" width="1" height="1"/><rect x="4" y="17" width="1" height="1"/><rect x="7" y="17" width="1" height="1"/><rect x="11" y="17" width="1" height="1"/><rect x="12" y="17" width="1" height="1"/><rect x="17" y="17" width="1" height="1"/><rect x="4" y="18" width="1" height="1"/><rect x="7" y="18" width="1" height="1"/><rect x="11" y="18" width="1" height="1"/><rect x="15" y="18" width="1" height="1"/><rect x="16" y="18" width="1" height="1"/><rect x="17" y="18" width="1" height="1"/><rect x="4" y="19" width="1" height="1"/><rect x="7" y="19" width="1" height="1"/><rect x="8" y="19" width="1" height="1"/><rect x="9" y="19" width="1" height="1"/><rect x="10" y="19" width="1" height="1"/><rect x="11" y="19" width="1" height="1"/><rect x="14" y="19" width="1" height="1"/><rect x="15" y="19" width="1" height="1"/><rect x="4" y="20" width="1" height="1"/><rect x="14" y="20" width="1" height="1"/><rect x="4" y="21" width="1" height="1"/><rect x="14" y="21" width="1" height="1"/><rect x="4" y="22" width="1" height="1"/><rect x="5" y="22" width="1" height="1"/><rect x="6" y="22" width="1" height="1"/><rect x="7" y="22" width="1" height="1"/><rect x="8" y="22" width="1" height="1"/><rect x="9" y="22" width="1" height="1"/><rect x="10" y="22" width="1" height="1"/><rect x="11" y="22" width="1" height="1"/><rect x="12" y="22" width="1" height="1"/><rect x="13" y="22" width="1" height="1"/><rect x="14" y="22" width="1" height="1"/><rect x="3" y="23" width="1" height="1"/><rect x="4" y="23" width="1" height="1"/><rect x="14" y="23" width="1" height="1"/><rect x="3" y="24" width="1" height="1"/><rect x="14" y="24" width="1" height="1"/><rect x="15" y="24" width="1" height="1"/><rect x="16" y="24" width="1" height="1"/><rect x="17" y="24" width="1" height="1"/><rect x="2" y="25" width="1" height="1"/><rect x="3" y="25" width="1" height="1"/><rect x="4" y="25" width="1" height="1"/><rect x="5" y="25" width="1" height="1"/><rect x="6" y="25" width="1" height="1"/><rect x="7" y="25" width="1" height="1"/><rect x="8" y="25" width="1" height="1"/><rect x="9" y="25" width="1" height="1"/><rect x="10" y="25" width="1" height="1"/><rect x="11" y="25" width="1" height="1"/><rect x="12" y="25" width="1" height="1"/><rect x="13" y="25" width="1" height="1"/><rect x="14" y="25" width="1" height="1"/><rect x="15" y="25" width="1" height="1"/><rect x="16" y="25" width="1" height="1"/><rect x="17" y="25" width="1" height="1"/><rect x="18" y="25" width="1" height="1"/><rect x="19" y="25" width="1" height="1"/><rect x="20" y="25" width="1" height="1"/><rect x="21" y="25" width="1" height="1"/>
  </g>
</svg>