<svg xmlns="http://www.w3.org/2000/svg" viewBox="0 0 60 47" width="60" height="47" shape-rendering="crispEdges">
  <g fill="#000000">
    <rect x="17" y="0" width="1" height="1"/><rect x="18" y="0" width="1" height="1"/><rect x="19" y="0" width="1" height="1"/><rect x="20" y="0" width="1" height="1"/><rect x="21" y="0" width="1" height="1"/><rect x="22" y="0" width="1" height="1"/><rect x="23" y="0" width="1" height="1"/><rect x="24" y="0" width="1" height="1"/><rect x="25" y="0" width="1" height="1"/><rect x="26" y="0" width="1" height="1"/><rect x="27" y="0" width="1" height="1"/><rect x="28" y="0" width="1" height="1"/><rect x="29" y="0" width="1" height="1"/><rect x="30" y="0" width="1" height="1"/><rect x="31" y="0" width="1" height="1"/><rect x="32" y="0" width="1" height="1"/><rect x="33" y="0" width="1" height="1"/><rect x="34" y="0" width="1" height="1"/><rect x="35" y="0" width="1" height="1"/><rect x="36" y="0" width="1" height="1"/><rect x="37" y="0" width="1" height="1"/><rect x="38" y="0" width="1" height="1"/><rect x="39" y="0" width="1" height="1"/><rect x="40" y="0" width="1" height="1"/><rect x="12" y="1" width="1" height="1"/><rect x="13" y="1" width="1" height="1"/><rect x="14" y="1" width="1" height="1"/><rect x="15" y="1" width="1" height="1"/><rect x="16" y="1" width="1" height="1"/><rect x="17" y="1" width="1" height="1"/><rect x="22" y="1" width="1" height="1"/><rect x="23" y="1" width="1" height="1"/><rect x="27" y="1" width="1" height="1"/><rect x="28" y="1" width="1" height="1"/><rect x="32" y="1" width="1" height="1"/><rect x="33" y="1" width="1" height="1"/><rect x="37" y="1" width="1" height="1"/><rect x="38" y="1" width="1" height="1"/><rect x="40" y="1" width="1" height="1"/><rect x="41" y="1" width="1" height="1"/><rect x="42" y="1" width="1" height="1"/><rect x="43" y="1" width="1" height="1"/><rect x="44" y="1" width="1" height="1"/><rect x="11" y="2" width="1" height="1"/><rect x="12" y="2" width="1" height="1"/><rect x="21" y="2" width="1" height="1"/><rect x="22" y="2" width="1" height="1"/><rect x="26" y="2" width="1" height="1"/><rect x="27" y="2" width="1" height="1"/><rect x="31" y="2" width="1" height="1"/><rect x="32" y="2" width="1" height="1"/><rect x="36" y="2" width="1" height="1"/><rect x="37" y="2" width="1" height="1"/><rect x="44" y="2" width="1" height="1"/><rect x="45" y="2" width="1" height="1"/><rect x="46" y="2" width="1" height="1"/><rect x="47" y="2" width="1" height="1"/><rect x="48" y="2" width="1" height="1"/><rect x="49" y="2" width="1" height="1"/><rect x="50" y="2" width="1" height="1"/><rect x="51" y="2" width="1" height="1"/><rect x="52" y="2" width="1" height="1"/><rect x="53" y="2" width="1" height="1"/><rect x="54" y="2" width="1" height="1"/><rect x="55" y="2" width="1" height="1"/><rect x="56" y="2" width="1" height="1"/><rect x="57" y="2" width="1" height="1"/><rect x="10" y="3" width="1" height="1"/><rect x="11" y="3" width="1" height="1"/><rect x="20" y="3" width="1" height="1"/><rect x="21" y="3" width="1" height="1"/><rect x="25" y="3" width="1" height="1"/><rect x="26" y="3" width="1" height="1"/><rect x="30" y="3" width="1" height="1"/><rect x="31" y="3" width="1" height="1"/><rect x="35" y="3" width="1" height="1"/><rect x="36" y="3" width="1" height="1"/><rect x="51" y="3" width="1" height="1"/><rect x="52" y="3" width="1" height="1"/><rect x="53" y="3" width="1" height="1"/><rect x="54" y="3" width="1" height="1"/><rect x="55" y="3" width="1" height="1"/><rect x="9" y="4" width="1" height="1"/><rect x="10" y="4" width="1" height="1"/><rect x="53" y="4" width="1" height="1"/><rect x="6" y="5" width="1" height="1"/><rect x="7" y="5" width="1" height="1"/><rect x="8" y="5" width="1" height="1"/><rect x="9" y="5" width="1" height="1"/><rect x="53" y="5" width="1" height="1"/><rect x="54" y="5" width="1" height="1"/><rect x="0" y="6" width="1" height="1"/><rect x="1" y="6" width="1" height="1"/><rect x="2" y="6" width="1" height="1"/><rect x="3" y="6" width="1" height="1"/><rect x="4" y="6" width="1" height="1"/><rect x="5" y="6" width="1" height="1"/><rect x="6" y="6" width="1" height="1"/><rect x="11" y="6" width="1" height="1"/><rect x="12" y="6" width="1" height="1"/><rect x="13" y="6" width="1" height="1"/><rect x="14" y="6" width="1" height="1"/><rect x="15" y="6" width="1" height="1"/><rect x="16" y="6" width="1" height="1"/><rect x="17" y="6" width="1" height="1"/><rect x="18" y="6" width="1" height="1"/><rect x="19" y="6" width="1" height="1"/><rect x="20" y="6" width="1" height="1"/><rect x="21" y="6" width="1" height="1"/><rect x="22" y="6" width="1" height="1"/><rect x="23" y="6" width="1" height="1"/><rect x="24" y="6" width="1" height="1"/><rect x="25" y="6" width="1" height="1"/><rect x="26" y="6" width="1" height="1"/><rect x="27" y="6" width="1" height="1"/><rect x="28" y="6" width="1" height="1"/><rect x="29" y="6" width="1" height="1"/><rect x="30" y="6" width="1" height="1"/><rect x="31" y="6" width="1" height="1"/><rect x="32" y="6" width="1" height="1"/><rect x="33" y="6" width="1" height="1"/><rect x="34" y="6" width="1" height="1"/><rect x="35" y="6" width="1" height="1"/><rect x="36" y="6" width="1" height="1"/><rect x="37" y="6" width="1" height="1"/><rect x="38" y="6" width="1" height="1"/><rect x="39" y="6" width="1" height="1"/><rect x="40" y="6" width="1" height="1"/><rect x="41" y="6" width="1" height="1"/><rect x="42" y="6" width="1" height="1"/><rect x="43" y="6" width="1" height="1"/><rect x="44" y="6" width="1" height="1"/><rect x="45" y="6" width="1" height="1"/><rect x="46" y="6" width="1" height="1"/><rect x="47" y="6" width="1" height="1"/><rect x="54" y="6" width="1" height="1"/><rect x="55" y="6" width="1" height="1"/><rect x="56" y="6" width="1" height="1"/><rect x="0" y="7" width="1" height="1"/><rect x="2" y="7" width="1" height="1"/><rect x="9" y="7" width="1" height="1"/><rect x="10" y="7" width="1" height="1"/><rect x="11" y="7" width="1" height="1"/><rect x="47" y="7" width="1" height="1"/><rect x="48" y="7" width="1" height="1"/><rect x="49" y="7" width="1" height="1"/><rect x="56" y="7" width="1" height="1"/><rect x="57" y="7" width="1" height="1"/><rect x="1" y="8" width="1" height="1"/><rect x="2" y="8" width="1" height="1"/><rect x="8" y="8" width="1" height="1"/><rect x="9" y="8" width="1" height="1"/><rect x="13" y="8" width="1" height="1"/><rect x="18" y="8" width="1" height="1"/><rect x="23" y="8" width="1" height="1"/><rect x="28" y="8" width="1" height="1"/><rect x="33" y="8" width="1" height="1"/><rect x="38" y="8" width="1" height="1"/><rect x="43" y="8" width="1" height="1"/><rect x="49" y="8" width="1" height="1"/><rect x="50" y="8" width="1" height="1"/><rect x="57" y="8" width="1" height="1"/><rect x="0" y="9" width="1" height="1"/><rect x="2" y="9" width="1" height="1"/><rect x="7" y="9" width="1" height="1"/><rect x="8" y="9" width="1" height="1"/><rect x="50" y="9" width="1" height="1"/><rect x="51" y="9" width="1" height="1"/><rect x="52" y="9" width="1" height="1"/><rect x="57" y="9" width="1" height="1"/><rect x="0" y="10" width="1" height="1"/><rect x="1" y="10" width="1" height="1"/><rect x="2" y="10" width="1" height="1"/><rect x="7" y="10" width="1" height="1"/><rect x="13" y="10" width="1" height="1"/><rect x="18" y="10" width="1" height="1"/><rect x="23" y="10" width="1" height="1"/><rect x="28" y="10" width="1" height="1"/><rect x="33" y="10" width="1" height="1"/><rect x="38" y="10" width="1" height="1"/><rect x="43" y="10" width="1" height="1"/><rect x="52" y="10" width="1" height="1"/><rect x="57" y="10" width="1" height="1"/><rect x="1" y="11" width="1" height="1"/><rect x="6" y="11" width="1" height="1"/><rect x="7" y="11" width="1" height="1"/><rect x="52" y="11" width="1" height="1"/><rect x="57" y="11" width="1" height="1"/><rect x="58" y="11" width="1" height="1"/><rect x="1" y="12" width="1" height="1"/><rect x="5" y="12" width="1" height="1"/><rect x="6" y="12" width="1" height="1"/><rect x="13" y="12" width="1" height="1"/><rect x="18" y="12" width="1" height="1"/><rect x="23" y="12" width="1" height="1"/><rect x="28" y="12" width="1" height="1"/><rect x="33" y="12" width="1" height="1"/><rect x="38" y="12" width="1" height="1"/><rect x="43" y="12" width="1" height="1"/><rect x="52" y="12" width="1" height="1"/><rect x="53" y="12" width="1" height="1"/><rect x="58" y="12" width="1" height="1"/><rect x="1" y="13" width="1" height="1"/><rect x="5" y="13" width="1" height="1"/><rect x="53" y="13" width="1" height="1"/><rect x="58" y="13" width="1" height="1"/><rect x="1" y="14" width="1" height="1"/><rect x="5" y="14" width="1" height="1"/><rect x="17" y="14" width="1" height="1"/><rect x="18" y="14" width="1" height="1"/><rect x="19" y="14" width="1" height="1"/><rect x="20" y="14" width="1" height="1"/><rect x="21" y="14" width="1" height="1"/><rect x="41" y="14" width="1" height="1"/><rect x="42" y="14" width="1" height="1"/><rect x="43" y="14" width="1" height="1"/><rect x="44" y="14" width="1" height="1"/><rect x="45" y="14" width="1" height="1"/><rect x="53" y="14" width="1" height="1"/><rect x="58" y="14" width="1" height="1"/><rect x="1" y="15" width="1" height="1"/><rect x="5" y="15" width="1" height="1"/><rect x="15" y="15" width="1" height="1"/><rect x="16" y="15" width="1" height="1"/><rect x="17" y="15" width="1" height="1"/><rect x="21" y="15" width="1" height="1"/><rect x="22" y="15" width="1" height="1"/><rect x="23" y="15" width="1" height="1"/><rect x="39" y="15" width="1" height="1"/><rect x="40" y="15" width="1" height="1"/><rect x="41" y="15" width="1" height="1"/><rect x="45" y="15" width="1" height="1"/><rect x="46" y="15" width="1" height="1"/><rect x="47" y="15" width="1" height="1"/><rect x="53" y="15" width="1" height="1"/><rect x="58" y="15" width="1" height="1"/><rect x="0" y="16" width="1" height="1"/><rect x="1" y="16" width="1" height="1"/><rect x="2" y="16" width="1" height="1"/><rect x="5" y="16" width="1" height="1"/><rect x="13" y="16" width="1" height="1"/><rect x="14" y="16" width="1" height="1"/><rect x="15" y="16" width="1" height="1"/><rect x="23" y="16" width="1" height="1"/><rect x="24" y="16" width="1" height="1"/><rect x="25" y="16" width="1" height="1"/><rect x="37" y="16" width="1" height="1"/><rect x="38" y="16" width="1" height="1"/><rect x="39" y="16" width="1" height="1"/><rect x="47" y="16" width="1" height="1"/><rect x="48" y="16" width="1" height="1"/><rect x="49" y="16" width="1" height="1"/><rect x="53" y="16" width="1" height="1"/><rect x="54" y="16" width="1" height="1"/><rect x="58" y="16" width="1" height="1"/><rect x="0" y="17" width="1" height="1"/><rect x="2" y="17" width="1" height="1"/><rect x="5" y="17" width="1" height="1"/><rect x="12" y="17" width="1" height="1"/><rect x="13" y="17" width="1" height="1"/><rect x="25" y="17" width="1" height="1"/><rect x="26" y="17" width="1" height="1"/><rect x="36" y="17" width="1" height="1"/><rect x="37" y="17" width="1" height="1"/><rect x="49" y="17" width="1" height="1"/><rect x="50" y="17" width="1" height="1"/><rect x="54" y="17" width="1" height="1"/><rect x="58" y="17" width="1" height="1"/><rect x="1" y="18" width="1" height="1"/><rect x="2" y="18" width="1" height="1"/><rect x="5" y="18" width="1" height="1"/><rect x="12" y="18" width="1" height="1"/><rect x="26" y="18" width="1" height="1"/><rect x="36" y="18" width="1" height="1"/><rect x="50" y="18" width="1" height="1"/><rect x="54" y="18" width="1" height="1"/><rect x="58" y="18" width="1" height="1"/><rect x="0" y="19" width="1" height="1"/><rect x="2" y="19" width="1" height="1"/><rect x="3" y="19" width="1" height="1"/><rect x="5" y="19" width="1" height="1"/><rect x="11" y="19" width="1" height="1"/><rect x="12" y="19" width="1" height="1"/><rect x="26" y="19" width="1" height="1"/><rect x="27" y="19" width="1" height="1"/><rect x="35" y="19" width="1" height="1"/><rect x="36" y="19" width="1" height="1"/><rect x="50" y="19" width="1" height="1"/><rect x="51" y="19" width="1" height="1"/><rect x="54" y="19" width="1" height="1"/><rect x="58" y="19" width="1" height="1"/><rect x="59" y="19" width="1" height="1"/><rect x="1" y="20" width="1" height="1"/><rect x="3" y="20" width="1" height="1"/><rect x="5" y="20" width="1" height="1"/><rect x="11" y="20" width="1" height="1"/><rect x="15" y="20" width="1" height="1"/><rect x="16" y="20" width="1" height="1"/><rect x="17" y="20" width="1" height="1"/><rect x="27" y="20" width="1" height="1"/><rect x="35" y="20" width="1" height="1"/><rect x="39" y="20" width="1" height="1"/><rect x="40" y="20" width="1" height="1"/><rect x="41" y="20" width="1" height="1"/><rect x="50" y="20" width="1" height="1"/><rect x="51" y="20" width="1" height="1"/><rect x="54" y="20" width="1" height="1"/><rect x="55" y="20" width="1" height="1"/><rect x="59" y="20" width="1" height="1"/><rect x="0" y="21" width="1" height="1"/><rect x="2" y="21" width="1" height="1"/><rect x="3" y="21" width="1" height="1"/><rect x="5" y="21" width="1" height="1"/><rect x="10" y="21" width="1" height="1"/><rect x="11" y="21" width="1" height="1"/><rect x="14" y="21" width="1" height="1"/><rect x="15" y="21" width="1" height="1"/><rect x="17" y="21" width="1" height="1"/><rect x="18" y="21" width="1" height="1"/><rect x="27" y="21" width="1" height="1"/><rect x="28" y="21" width="1" height="1"/><rect x="34" y="21" width="1" height="1"/><rect x="35" y="21" width="1" height="1"/><rect x="38" y="21" width="1" height="1"/><rect x="39" y="21" width="1" height="1"/><rect x="41" y="21" width="1" height="1"/><rect x="42" y="21" width="1" height="1"/><rect x="50" y="21" width="1" height="1"/><rect x="51" y="21" width="1" height="1"/><rect x="52" y="21" width="1" height="1"/><rect x="55" y="21" width="1" height="1"/><rect x="59" y="21" width="1" height="1"/><rect x="1" y="22" width="1" height="1"/><rect x="3" y="22" width="1" height="1"/><rect x="5" y="22" width="1" height="1"/><rect x="10" y="22" width="1" height="1"/><rect x="13" y="22" width="1" height="1"/><rect x="14" y="22" width="1" height="1"/><rect x="18" y="22" width="1" height="1"/><rect x="19" y="22" width="1" height="1"/><rect x="28" y="22" width="1" height="1"/><rect x="34" y="22" width="1" height="1"/><rect x="37" y="22" width="1" height="1"/><rect x="38" y="22" width="1" height="1"/><rect x="42" y="22" width="1" height="1"/><rect x="43" y="22" width="1" height="1"/><rect x="51" y="22" width="1" height="1"/><rect x="52" y="22" width="1" height="1"/><rect x="55" y="22" width="1" height="1"/><rect x="59" y="22" width="1" height="1"/><rect x="0" y="23" width="1" height="1"/><rect x="2" y="23" width="1" height="1"/><rect x="3" y="23" width="1" height="1"/><rect x="5" y="23" width="1" height="1"/><rect x="10" y="23" width="1" height="1"/><rect x="13" y="23" width="1" height="1"/><rect x="19" y="23" width="1" height="1"/><rect x="28" y="23" width="1" height="1"/><rect x="34" y="23" width="1" height="1"/><rect x="37" y="23" width="1" height="1"/><rect x="43" y="23" width="1" height="1"/><rect x="51" y="23" width="1" height="1"/><rect x="52" y="23" width="1" height="1"/><rect x="55" y="23" width="1" height="1"/><rect x="59" y="23" width="1" height="1"/><rect x="1" y="24" width="1" height="1"/><rect x="3" y="24" width="1" height="1"/><rect x="5" y="24" width="1" height="1"/><rect x="10" y="24" width="1" height="1"/><rect x="13" y="24" width="1" height="1"/><rect x="14" y="24" width="1" height="1"/><rect x="18" y="24" width="1" height="1"/><rect x="19" y="24" width="1" height="1"/><rect x="28" y="24" width="1" height="1"/><rect x="34" y="24" width="1" height="1"/><rect x="37" y="24" width="1" height="1"/><rect x="38" y="24" width="1" height="1"/><rect x="42" y="24" width="1" height="1"/><rect x="43" y="24" width="1" height="1"/><rect x="51" y="24" width="1" height="1"/><rect x="52" y="24" width="1" height="1"/><rect x="55" y="24" width="1" height="1"/><rect x="59" y="24" width="1" height="1"/><rect x="0" y="25" width="1" height="1"/><rect x="2" y="25" width="1" height="1"/><rect x="3" y="25" width="1" height="1"/><rect x="5" y="25" width="1" height="1"/><rect x="10" y="25" width="1" height="1"/><rect x="11" y="25" width="1" height="1"/><rect x="14" y="25" width="1" height="1"/><rect x="15" y="25" width="1" height="1"/><rect x="17" y="25" width="1" height="1"/><rect x="18" y="25" width="1" height="1"/><rect x="27" y="25" width="1" height="1"/><rect x="28" y="25" width="1" height="1"/><rect x="34" y="25" width="1" height="1"/><rect x="35" y="25" width="1" height="1"/><rect x="38" y="25" width="1" height="1"/><rect x="39" y="25" width="1" height="1"/><rect x="41" y="25" width="1" height="1"/><rect x="42" y="25" width="1" height="1"/><rect x="50" y="25" width="1" height="1"/><rect x="51" y="25" width="1" height="1"/><rect x="52" y="25" width="1" height="1"/><rect x="55" y="25" width="1" height="1"/><rect x="59" y="25" width="1" height="1"/><rect x="1" y="26" width="1" height="1"/><rect x="3" y="26" width="1" height="1"/><rect x="5" y="26" width="1" height="1"/><rect x="11" y="26" width="1" height="1"/><rect x="15" y="26" width="1" height="1"/><rect x="16" y="26" width="1" height="1"/><rect x="17" y="26" width="1" height="1"/><rect x="27" y="26" width="1" height="1"/><rect x="35" y="26" width="1" height="1"/><rect x="39" y="26" width="1" height="1"/><rect x="40" y="26" width="1" height="1"/><rect x="41" y="26" width="1" height="1"/><rect x="50" y="26" width="1" height="1"/><rect x="51" y="26" width="1" height="1"/><rect x="54" y="26" width="1" height="1"/><rect x="55" y="26" width="1" height="1"/><rect x="59" y="26" width="1" height="1"/><rect x="0" y="27" width="1" height="1"/><rect x="2" y="27" width="1" height="1"/><rect x="3" y="27" width="1" height="1"/><rect x="5" y="27" width="1" height="1"/><rect x="11" y="27" width="1" height="1"/><rect x="12" y="27" width="1" height="1"/><rect x="26" y="27" width="1" height="1"/><rect x="27" y="27" width="1" height="1"/><rect x="35" y="27" width="1" height="1"/><rect x="36" y="27" width="1" height="1"/><rect x="50" y="27" width="1" height="1"/><rect x="51" y="27" width="1" height="1"/><rect x="54" y="27" width="1" height="1"/><rect x="58" y="27" width="1" height="1"/><rect x="59" y="27" width="1" height="1"/><rect x="1" y="28" width="1" height="1"/><rect x="2" y="28" width="1" height="1"/><rect x="5" y="28" width="1" height="1"/><rect x="12" y="28" width="1" height="1"/><rect x="26" y="28" width="1" height="1"/><rect x="36" y="28" width="1" height="1"/><rect x="50" y="28" width="1" height="1"/><rect x="54" y="28" width="1" height="1"/><rect x="58" y="28" width="1" height="1"/><rect x="0" y="29" width="1" height="1"/><rect x="2" y="29" width="1" height="1"/><rect x="5" y="29" width="1" height="1"/><rect x="12" y="29" width="1" height="1"/><rect x="13" y="29" width="1" height="1"/><rect x="25" y="29" width="1" height="1"/><rect x="26" y="29" width="1" height="1"/><rect x="36" y="29" width="1" height="1"/><rect x="37" y="29" width="1" height="1"/><rect x="49" y="29" width="1" height="1"/><rect x="50" y="29" width="1" height="1"/><rect x="54" y="29" width="1" height="1"/><rect x="58" y="29" width="1" height="1"/><rect x="0" y="30" width="1" height="1"/><rect x="1" y="30" width="1" height="1"/><rect x="2" y="30" width="1" height="1"/><rect x="5" y="30" width="1" height="1"/><rect x="13" y="30" width="1" height="1"/><rect x="14" y="30" width="1" height="1"/><rect x="15" y="30" width="1" height="1"/><rect x="23" y="30" width="1" height="1"/><rect x="24" y="30" width="1" height="1"/><rect x="25" y="30" width="1" height="1"/><rect x="37" y="30" width="1" height="1"/><rect x="38" y="30" width="1" height="1"/><rect x="39" y="30" width="1" height="1"/><rect x="47" y="30" width="1" height="1"/><rect x="48" y="30" width="1" height="1"/><rect x="49" y="30" width="1" height="1"/><rect x="53" y="30" width="1" height="1"/><rect x="54" y="30" width="1" height="1"/><rect x="58" y="30" width="1" height="1"/><rect x="1" y="31" width="1" height="1"/><rect x="5" y="31" width="1" height="1"/><rect x="15" y="31" width="1" height="1"/><rect x="16" y="31" width="1" height="1"/><rect x="17" y="31" width="1" height="1"/><rect x="22" y="31" width="1" height="1"/><rect x="23" y="31" width="1" height="1"/><rect x="39" y="31" width="1" height="1"/><rect x="40" y="31" width="1" height="1"/><rect x="41" y="31" width="1" height="1"/><rect x="45" y="31" width="1" height="1"/><rect x="46" y="31" width="1" height="1"/><rect x="47" y="31" width="1" height="1"/><rect x="53" y="31" width="1" height="1"/><rect x="58" y="31" width="1" height="1"/><rect x="1" y="32" width="1" height="1"/><rect x="5" y="32" width="1" height="1"/><rect x="17" y="32" width="1" height="1"/><rect x="18" y="32" width="1" height="1"/><rect x="19" y="32" width="1" height="1"/><rect x="20" y="32" width="1" height="1"/><rect x="21" y="32" width="1" height="1"/><rect x="22" y="32" width="1" height="1"/><rect x="41" y="32" width="1" height="1"/><rect x="42" y="32" width="1" height="1"/><rect x="43" y="32" width="1" height="1"/><rect x="44" y="32" width="1" height="1"/><rect x="45" y="32" width="1" height="1"/><rect x="53" y="32" width="1" height="1"/><rect x="58" y="32" width="1" height="1"/><rect x="1" y="33" width="1" height="1"/><rect x="5" y="33" width="1" height="1"/><rect x="53" y="33" width="1" height="1"/><rect x="58" y="33" width="1" height="1"/><rect x="1" y="34" width="1" height="1"/><rect x="5" y="34" width="1" height="1"/><rect x="6" y="34" width="1" height="1"/><rect x="13" y="34" width="1" height="1"/><rect x="18" y="34" width="1" height="1"/><rect x="23" y="34" width="1" height="1"/><rect x="28" y="34" width="1" height="1"/><rect x="33" y="34" width="1" height="1"/><rect x="38" y="34" width="1" height="1"/><rect x="43" y="34" width="1" height="1"/><rect x="52" y="34" width="1" height="1"/><rect x="53" y="34" width="1" height="1"/><rect x="58" y="34" width="1" height="1"/><rect x="1" y="35" width="1" height="1"/><rect x="6" y="35" width="1" height="1"/><rect x="7" y="35" width="1" height="1"/><rect x="52" y="35" width="1" height="1"/><rect x="57" y="35" width="1" height="1"/><rect x="58" y="35" width="1" height="1"/><rect x="0" y="36" width="1" height="1"/><rect x="1" y="36" width="1" height="1"/><rect x="2" y="36" width="1" height="1"/><rect x="7" y="36" width="1" height="1"/><rect x="13" y="36" width="1" height="1"/><rect x="18" y="36" width="1" height="1"/><rect x="23" y="36" width="1" height="1"/><rect x="28" y="36" width="1" height="1"/><rect x="33" y="36" width="1" height="1"/><rect x="38" y="36" width="1" height="1"/><rect x="43" y="36" width="1" height="1"/><rect x="52" y="36" width="1" height="1"/><rect x="57" y="36" width="1" height="1"/><rect x="0" y="37" width="1" height="1"/><rect x="2" y="37" width="1" height="1"/><rect x="7" y="37" width="1" height="1"/><rect x="8" y="37" width="1" height="1"/><rect x="50" y="37" width="1" height="1"/><rect x="51" y="37" width="1" height="1"/><rect x="52" y="37" width="1" height="1"/><rect x="57" y="37" width="1" height="1"/><rect x="1" y="38" width="1" height="1"/><rect x="2" y="38" width="1" height="1"/><rect x="8" y="38" width="1" height="1"/><rect x="9" y="38" width="1" height="1"/><rect x="13" y="38" width="1" height="1"/><rect x="18" y="38" width="1" height="1"/><rect x="23" y="38" width="1" height="1"/><rect x="28" y="38" width="1" height="1"/><rect x="33" y="38" width="1" height="1"/><rect x="38" y="38" width="1" height="1"/><rect x="43" y="38" width="1" height="1"/><rect x="49" y="38" width="1" height="1"/><rect x="50" y="38" width="1" height="1"/><rect x="57" y="38" width="1" height="1"/><rect x="0" y="39" width="1" height="1"/><rect x="2" y="39" width="1" height="1"/><rect x="9" y="39" width="1" height="1"/><rect x="10" y="39" width="1" height="1"/><rect x="11" y="39" width="1" height="1"/><rect x="47" y="39" width="1" height="1"/><rect x="48" y="39" width="1" height="1"/><rect x="49" y="39" width="1" height="1"/><rect x="56" y="39" width="1" height="1"/><rect x="57" y="39" width="1" height="1"/><rect x="0" y="40" width="1" height="1"/><rect x="1" y="40" width="1" height="1"/><rect x="2" y="40" width="1" height="1"/><rect x="3" y="40" width="1" height="1"/><rect x="4" y="40" width="1" height="1"/><rect x="5" y="40" width="1" height="1"/><rect x="6" y="40" width="1" height="1"/><rect x="11" y="40" width="1" height="1"/><rect x="12" y="40" width="1" height="1"/><rect x="13" y="40" width="1" height="1"/><rect x="14" y="40" width="1" height="1"/><rect x="15" y="40" width="1" height="1"/><rect x="16" y="40" width="1" height="1"/><rect x="17" y="40" width="1" height="1"/><rect x="18" y="40" width="1" height="1"/><rect x="19" y="40" width="1" height="1"/><rect x="20" y="40" width="1" height="1"/><rect x="21" y="40" width="1" height="1"/><rect x="22" y="40" width="1" height="1"/><rect x="23" y="40" width="1" height="1"/><rect x="24" y="40" width="1" height="1"/><rect x="25" y="40" width="1" height="1"/><rect x="26" y="40" width="1" height="1"/><rect x="27" y="40" width="1" height="1"/><rect x="28" y="40" width="1" height="1"/><rect x="29" y="40" width="1" height="1"/><rect x="30" y="40" width="1" height="1"/><rect x="31" y="40" width="1" height="1"/><rect x="32" y="40" width="1" height="1"/><rect x="33" y="40" width="1" height="1"/><rect x="34" y="40" width="1" height="1"/><rect x="35" y="40" width="1" height="1"/><rect x="36" y="40" width="1" height="1"/><rect x="37" y="40" width="1" height="1"/><rect x="38" y="40" width="1" height="1"/><rect x="39" y="40" width="1" height="1"/><rect x="40" y="40" width="1" height="1"/><rect x="41" y="40" width="1" height="1"/><rect x="42" y="40" width="1" height="1"/><rect x="43" y="40" width="1" height="1"/><rect x="44" y="40" width="1" height="1"/><rect x="45" y="40" width="1" height="1"/><rect x="46" y="40" width="1" height="1"/><rect x="47" y="40" width="1" height="1"/><rect x="54" y="40" width="1" height="1"/><rect x="55" y="40" width="1" height="1"/><rect x="56" y="40" width="1" height="1"/><rect x="6" y="41" width="1" height="1"/><rect x="7" y="41" width="1" height="1"/><rect x="8" y="41" width="1" height="1"/><rect x="9" y="41" width="1" height="1"/><rect x="53" y="41" width="1" height="1"/><rect x="54" y="41" width="1" height="1"/><rect x="9" y="42" width="1" height="1"/><rect x="10" y="42" width="1" height="1"/><rect x="53" y="42" width="1" height="1"/><rect x="10" y="43" width="1" height="1"/><rect x="11" y="43" width="1" height="1"/><rect x="20" y="43" width="1" height="1"/><rect x="21" y="43" width="1" height="1"/><rect x="25" y="43" width="1" height="1"/><rect x="26" y="43" width="1" height="1"/><rect x="30" y="43" width="1" height="1"/><rect x="31" y="43" width="1" height="1"/><rect x="35" y="43" width="1" height="1"/><rect x="36" y="43" width="1" height="1"/><rect x="51" y="43" width="1" height="1"/><rect x="52" y="43" width="1" height="1"/><rect x="53" y="43" width="1" height="1"/><rect x="54" y="43" width="1" height="1"/><rect x="55" y="43" width="1" height="1"/><rect x="11" y="44" width="1" height="1"/><rect x="12" y="44" width="1" height="1"/><rect x="21" y="44" width="1" height="1"/><rect x="22" y="44" width="1" height="1"/><rect x="26" y="44" width="1" height="1"/><rect x="27" y="44" width="1" height="1"/><rect x="31" y="44" width="1" height="1"/><rect x="32" y="44" width="1" height="1"/><rect x="36" y="44" width="1" height="1"/><rect x="37" y="44" width="1" height="1"/><rect x="44" y="44" width="1" height="1"/><rect x="45" y="44" width="1" height="1"/><rect x="46" y="44" width="1" height="1"/><rect x="47" y="44" width="1" height="1"/><rect x="48" y="44" width="1" height="1"/><rect x="49" y="44" width="1" height="1"/><rect x="50" y="44" width="1" height="1"/><rect x="51" y="44" width="1" height="1"/><rect x="52" y="44" width="1" height="1"/><rect x="53" y="44" width="1" height="1"/><rect x="54" y="44" width="1" height="1"/><rect x="55" y="44" width="1" height="1"/><rect x="56" y="44" width="1" height="1"/><rect x="57" y="44" width="1" height="1"/><rect x="12" y="45" width="1" height="1"/><rect x="13" y="45" width="1" height="1"/><rect x="14" y="45" width="1" height="1"/><rect x="15" y="45" width="1" height="1"/><rect x="16" y="45" width="1" height="1"/><rect x="17" y="45" width="1" height="1"/><rect x="22" y="45" width="1" height="1"/><rect x="23" y="45" width="1" height="1"/><rect x="27" y="45" width="1" height="1"/><rect x="28" y="45" width="1" height="1"/><rect x="32" y="45" width="1" height="1"/><rect x="33" y="45" width="1" height="1"/><rect x="37" y="45" width="1" height="1"/><rect x="38" y="45" width="1" height="1"/><rect x="40" y="45" width="1" height="1"/><rect x="41" y="45" width="1" height="1"/><rect x="42" y="45" width="1" height="1"/><rect x="43" y="45" width="1" height="1"/><rect x="44" y="45" width="1" height="1"/><rect x="17" y="46" width="1" height="1"/><rect x="18" y="46" width="1" height="1"/><rect x="19" y="46" width="1" height="1"/><rect x="20" y="46" width="1" height="1"/><rect x="21" y="46" width="1" height="1"/><rect x="22" y="46" width="1" height="1"/><rect x="23" y="46" width="1" height="1"/><rect x="24" y="46" width="1" height="1"/><rect x="25" y="46" width="1" height="1"/><rect x="26" y="46" width="1" height="1"/><rect x="27" y="46" width="1" height="1"/><rect x="28" y="46" width="1" height="1"/><rect x="29" y="46" width="1" height="1"/><rect x="30" y="46" width="1" height="1"/><rect x="31" y="46" width="1" height="1"/><rect x="32" y="46" width="1" height="1"/><rect x="33" y="46" width="1" height="1"/><rect x="34" y="46" width="1" height="1"/><rect x="35" y="46" width="1" height="1"/><rect x="36" y="46" width="1" height="1"/><rect x="37" y="46" width="1" height="1"/><rect x="38" y="46" width="1" height="1"/><rect x="39" y="46" width="1" height="1"/><rect x="40" y="46" width="1" height="1"/>
  </g>
</svg>