<svg xmlns="http://www.w3.org/2000/svg" viewBox="0 0 60 48" width="60" height="48" shape-rendering="crispEdges">
  <g fill="#000000">
    <rect x="7" y="0" width="1" height="1"/><rect x="8" y="0" width="1" height="1"/><rect x="9" y="0" width="1" height="1"/><rect x="10" y="0" width="1" height="1"/><rect x="7" y="1" width="1" height="1"/><rect x="10" y="1" width="1" height="1"/><rect x="11" y="1" width="1" height="1"/><rect x="12" y="1" width="1" height="1"/><rect x="6" y="2" width="1" height="1"/><rect x="7" y="2" width="1" height="1"/><rect x="12" y="2" width="1" height="1"/><rect x="13" y="2" width="1" height="1"/><rect x="14" y="2" width="1" height="1"/><rect x="15" y="2" width="1" height="1"/><rect x="16" y="2" width="1" height="1"/><rect x="17" y="2" width="1" height="1"/><rect x="18" y="2" width="1" height="1"/><rect x="19" y="2" width="1" height="1"/><rect x="20" y="2" width="1" height="1"/><rect x="21" y="2" width="1" height="1"/><rect x="22" y="2" width="1" height="1"/><rect x="23" y="2" width="1" height="1"/><rect x="24" y="2" width="1" height="1"/><rect x="25" y="2" width="1" height="1"/><rect x="6" y="3" width="1" height="1"/><rect x="25" y="3" width="1" height="1"/><rect x="26" y="3" width="1" height="1"/><rect x="27" y="3" width="1" height="1"/><rect x="6" y="4" width="1" height="1"/><rect x="11" y="4" width="1" height="1"/><rect x="12" y="4" width="1" height="1"/><rect x="16" y="4" width="1" height="1"/><rect x="17" y="4" width="1" height="1"/><rect x="21" y="4" width="1" height="1"/><rect x="22" y="4" width="1" height="1"/><rect x="26" y="4" width="1" height="1"/><rect x="27" y="4" width="1" height="1"/><rect x="28" y="4" width="1" height="1"/><rect x="29" y="4" width="1" height="1"/><rect x="5" y="5" width="1" height="1"/><rect x="6" y="5" width="1" height="1"/><rect x="10" y="5" width="1" height="1"/><rect x="11" y="5" width="1" height="1"/><rect x="15" y="5" width="1" height="1"/><rect x="16" y="5" width="1" height="1"/><rect x="20" y="5" width="1" height="1"/><rect x="21" y="5" width="1" height="1"/><rect x="25" y="5" width="1" height="1"/><rect x="26" y="5" width="1" height="1"/><rect x="29" y="5" width="1" height="1"/><rect x="30" y="5" width="1" height="1"/><rect x="31" y="5" width="1" height="1"/><rect x="5" y="6" width="1" height="1"/><rect x="9" y="6" width="1" height="1"/><rect x="10" y="6" width="1" height="1"/><rect x="14" y="6" width="1" height="1"/><rect x="15" y="6" width="1" height="1"/><rect x="19" y="6" width="1" height="1"/><rect x="20" y="6" width="1" height="1"/><rect x="24" y="6" width="1" height="1"/><rect x="25" y="6" width="1" height="1"/><rect x="31" y="6" width="1" height="1"/><rect x="32" y="6" width="1" height="1"/><rect x="33" y="6" width="1" height="1"/><rect x="34" y="6" width="1" height="1"/><rect x="35" y="6" width="1" height="1"/><rect x="36" y="6" width="1" height="1"/><rect x="37" y="6" width="1" height="1"/><rect x="38" y="6" width="1" height="1"/><rect x="39" y="6" width="1" height="1"/><rect x="40" y="6" width="1" height="1"/><rect x="49" y="6" width="1" height="1"/><rect x="50" y="6" width="1" height="1"/><rect x="51" y="6" width="1" height="1"/><rect x="52" y="6" width="1" height="1"/><rect x="2" y="7" width="1" height="1"/><rect x="3" y="7" width="1" height="1"/><rect x="4" y="7" width="1" height="1"/><rect x="5" y="7" width="1" height="1"/><rect x="31" y="7" width="1" height="1"/><rect x="32" y="7" width="1" height="1"/><rect x="33" y="7" width="1" height="1"/><rect x="34" y="7" width="1" height="1"/><rect x="35" y="7" width="1" height="1"/><rect x="48" y="7" width="1" height="1"/><rect x="49" y="7" width="1" height="1"/><rect x="52" y="7" width="1" height="1"/><rect x="3" y="8" width="1" height="1"/><rect x="30" y="8" width="1" height="1"/><rect x="31" y="8" width="1" height="1"/><rect x="48" y="8" width="1" height="1"/><rect x="52" y="8" width="1" height="1"/><rect x="2" y="9" width="1" height="1"/><rect x="3" y="9" width="1" height="1"/><rect x="4" y="9" width="1" height="1"/><rect x="29" y="9" width="1" height="1"/><rect x="30" y="9" width="1" height="1"/><rect x="47" y="9" width="1" height="1"/><rect x="48" y="9" width="1" height="1"/><rect x="52" y="9" width="1" height="1"/><rect x="4" y="10" width="1" height="1"/><rect x="5" y="10" width="1" height="1"/><rect x="6" y="10" width="1" height="1"/><rect x="7" y="10" width="1" height="1"/><rect x="8" y="10" width="1" height="1"/><rect x="9" y="10" width="1" height="1"/><rect x="10" y="10" width="1" height="1"/><rect x="11" y="10" width="1" height="1"/><rect x="12" y="10" width="1" height="1"/><rect x="13" y="10" width="1" height="1"/><rect x="14" y="10" width="1" height="1"/><rect x="15" y="10" width="1" height="1"/><rect x="16" y="10" width="1" height="1"/><rect x="17" y="10" width="1" height="1"/><rect x="18" y="10" width="1" height="1"/><rect x="19" y="10" width="1" height="1"/><rect x="20" y="10" width="1" height="1"/><rect x="21" y="10" width="1" height="1"/><rect x="22" y="10" width="1" height="1"/><rect x="23" y="10" width="1" height="1"/><rect x="24" y="10" width="1" height="1"/><rect x="25" y="10" width="1" height="1"/><rect x="26" y="10" width="1" height="1"/><rect x="27" y="10" width="1" height="1"/><rect x="28" y="10" width="1" height="1"/><rect x="29" y="10" width="1" height="1"/><rect x="47" y="10" width="1" height="1"/><rect x="49" y="10" width="1" height="1"/><rect x="50" y="10" width="1" height="1"/><rect x="52" y="10" width="1" height="1"/><rect x="5" y="11" width="1" height="1"/><rect x="29" y="11" width="1" height="1"/><rect x="30" y="11" width="1" height="1"/><rect x="46" y="11" width="1" height="1"/><rect x="47" y="11" width="1" height="1"/><rect x="52" y="11" width="1" height="1"/><rect x="53" y="11" width="1" height="1"/><rect x="5" y="12" width="1" height="1"/><rect x="30" y="12" width="1" height="1"/><rect x="31" y="12" width="1" height="1"/><rect x="46" y="12" width="1" height="1"/><rect x="53" y="12" width="1" height="1"/><rect x="5" y="13" width="1" height="1"/><rect x="9" y="13" width="1" height="1"/><rect x="12" y="13" width="1" height="1"/><rect x="15" y="13" width="1" height="1"/><rect x="18" y="13" width="1" height="1"/><rect x="21" y="13" width="1" height="1"/><rect x="23" y="13" width="1" height="1"/><rect x="25" y="13" width="1" height="1"/><rect x="27" y="13" width="1" height="1"/><rect x="31" y="13" width="1" height="1"/><rect x="45" y="13" width="1" height="1"/><rect x="46" y="13" width="1" height="1"/><rect x="48" y="13" width="1" height="1"/><rect x="49" y="13" width="1" height="1"/><rect x="50" y="13" width="1" height="1"/><rect x="51" y="13" width="1" height="1"/><rect x="53" y="13" width="1" height="1"/><rect x="4" y="14" width="1" height="1"/><rect x="5" y="14" width="1" height="1"/><rect x="31" y="14" width="1" height="1"/><rect x="32" y="14" width="1" height="1"/><rect x="45" y="14" width="1" height="1"/><rect x="53" y="14" width="1" height="1"/><rect x="4" y="15" width="1" height="1"/><rect x="32" y="15" width="1" height="1"/><rect x="33" y="15" width="1" height="1"/><rect x="34" y="15" width="1" height="1"/><rect x="35" y="15" width="1" height="1"/><rect x="36" y="15" width="1" height="1"/><rect x="37" y="15" width="1" height="1"/><rect x="38" y="15" width="1" height="1"/><rect x="39" y="15" width="1" height="1"/><rect x="40" y="15" width="1" height="1"/><rect x="41" y="15" width="1" height="1"/><rect x="42" y="15" width="1" height="1"/><rect x="43" y="15" width="1" height="1"/><rect x="44" y="15" width="1" height="1"/><rect x="45" y="15" width="1" height="1"/><rect x="53" y="15" width="1" height="1"/><rect x="3" y="16" width="1" height="1"/><rect x="4" y="16" width="1" height="1"/><rect x="53" y="16" width="1" height="1"/><rect x="3" y="17" width="1" height="1"/><rect x="13" y="17" width="1" height="1"/><rect x="14" y="17" width="1" height="1"/><rect x="15" y="17" width="1" height="1"/><rect x="16" y="17" width="1" height="1"/><rect x="17" y="17" width="1" height="1"/><rect x="18" y="17" width="1" height="1"/><rect x="19" y="17" width="1" height="1"/><rect x="20" y="17" width="1" height="1"/><rect x="21" y="17" width="1" height="1"/><rect x="53" y="17" width="1" height="1"/><rect x="54" y="17" width="1" height="1"/><rect x="55" y="17" width="1" height="1"/><rect x="56" y="17" width="1" height="1"/><rect x="2" y="18" width="1" height="1"/><rect x="3" y="18" width="1" height="1"/><rect x="12" y="18" width="1" height="1"/><rect x="13" y="18" width="1" height="1"/><rect x="21" y="18" width="1" height="1"/><rect x="22" y="18" width="1" height="1"/><rect x="23" y="18" width="1" height="1"/><rect x="24" y="18" width="1" height="1"/><rect x="25" y="18" width="1" height="1"/><rect x="56" y="18" width="1" height="1"/><rect x="57" y="18" width="1" height="1"/><rect x="0" y="19" width="1" height="1"/><rect x="1" y="19" width="1" height="1"/><rect x="2" y="19" width="1" height="1"/><rect x="11" y="19" width="1" height="1"/><rect x="12" y="19" width="1" height="1"/><rect x="25" y="19" width="1" height="1"/><rect x="26" y="19" width="1" height="1"/><rect x="27" y="19" width="1" height="1"/><rect x="28" y="19" width="1" height="1"/><rect x="49" y="19" width="1" height="1"/><rect x="57" y="19" width="1" height="1"/><rect x="1" y="20" width="1" height="1"/><rect x="11" y="20" width="1" height="1"/><rect x="28" y="20" width="1" height="1"/><rect x="29" y="20" width="1" height="1"/><rect x="30" y="20" width="1" height="1"/><rect x="31" y="20" width="1" height="1"/><rect x="32" y="20" width="1" height="1"/><rect x="50" y="20" width="1" height="1"/><rect x="57" y="20" width="1" height="1"/><rect x="58" y="20" width="1" height="1"/><rect x="0" y="21" width="1" height="1"/><rect x="1" y="21" width="1" height="1"/><rect x="2" y="21" width="1" height="1"/><rect x="3" y="21" width="1" height="1"/><rect x="10" y="21" width="1" height="1"/><rect x="11" y="21" width="1" height="1"/><rect x="32" y="21" width="1" height="1"/><rect x="33" y="21" width="1" height="1"/><rect x="34" y="21" width="1" height="1"/><rect x="35" y="21" width="1" height="1"/><rect x="36" y="21" width="1" height="1"/><rect x="37" y="21" width="1" height="1"/><rect x="38" y="21" width="1" height="1"/><rect x="51" y="21" width="1" height="1"/><rect x="58" y="21" width="1" height="1"/><rect x="1" y="22" width="1" height="1"/><rect x="3" y="22" width="1" height="1"/><rect x="9" y="22" width="1" height="1"/><rect x="10" y="22" width="1" height="1"/><rect x="38" y="22" width="1" height="1"/><rect x="39" y="22" width="1" height="1"/><rect x="40" y="22" width="1" height="1"/><rect x="41" y="22" width="1" height="1"/><rect x="42" y="22" width="1" height="1"/><rect x="43" y="22" width="1" height="1"/><rect x="52" y="22" width="1" height="1"/><rect x="58" y="22" width="1" height="1"/><rect x="59" y="22" width="1" height="1"/><rect x="0" y="23" width="1" height="1"/><rect x="2" y="23" width="1" height="1"/><rect x="3" y="23" width="1" height="1"/><rect x="9" y="23" width="1" height="1"/><rect x="43" y="23" width="1" height="1"/><rect x="44" y="23" width="1" height="1"/><rect x="52" y="23" width="1" height="1"/><rect x="59" y="23" width="1" height="1"/><rect x="1" y="24" width="1" height="1"/><rect x="3" y="24" width="1" height="1"/><rect x="9" y="24" width="1" height="1"/><rect x="43" y="24" width="1" height="1"/><rect x="44" y="24" width="1" height="1"/><rect x="52" y="24" width="1" height="1"/><rect x="59" y="24" width="1" height="1"/><rect x="0" y="25" width="1" height="1"/><rect x="2" y="25" width="1" height="1"/><rect x="3" y="25" width="1" height="1"/><rect x="9" y="25" width="1" height="1"/><rect x="10" y="25" width="1" height="1"/><rect x="38" y="25" width="1" height="1"/><rect x="39" y="25" width="1" height="1"/><rect x="40" y="25" width="1" height="1"/><rect x="41" y="25" width="1" height="1"/><rect x="42" y="25" width="1" height="1"/><rect x="43" y="25" width="1" height="1"/><rect x="52" y="25" width="1" height="1"/><rect x="58" y="25" width="1" height="1"/><rect x="59" y="25" width="1" height="1"/><rect x="1" y="26" width="1" height="1"/><rect x="2" y="26" width="1" height="1"/><rect x="3" y="26" width="1" height="1"/><rect x="10" y="26" width="1" height="1"/><rect x="11" y="26" width="1" height="1"/><rect x="32" y="26" width="1" height="1"/><rect x="33" y="26" width="1" height="1"/><rect x="34" y="26" width="1" height="1"/><rect x="35" y="26" width="1" height="1"/><rect x="36" y="26" width="1" height="1"/><rect x="37" y="26" width="1" height="1"/><rect x="38" y="26" width="1" height="1"/><rect x="51" y="26" width="1" height="1"/><rect x="58" y="26" width="1" height="1"/><rect x="0" y="27" width="1" height="1"/><rect x="1" y="27" width="1" height="1"/><rect x="11" y="27" width="1" height="1"/><rect x="28" y="27" width="1" height="1"/><rect x="29" y="27" width="1" height="1"/><rect x="30" y="27" width="1" height="1"/><rect x="31" y="27" width="1" height="1"/><rect x="32" y="27" width="1" height="1"/><rect x="50" y="27" width="1" height="1"/><rect x="57" y="27" width="1" height="1"/><rect x="58" y="27" width="1" height="1"/><rect x="0" y="28" width="1" height="1"/><rect x="1" y="28" width="1" height="1"/><rect x="2" y="28" width="1" height="1"/><rect x="11" y="28" width="1" height="1"/><rect x="12" y="28" width="1" height="1"/><rect x="25" y="28" width="1" height="1"/><rect x="26" y="28" width="1" height="1"/><rect x="27" y="28" width="1" height="1"/><rect x="28" y="28" width="1" height="1"/><rect x="49" y="28" width="1" height="1"/><rect x="57" y="28" width="1" height="1"/><rect x="2" y="29" width="1" height="1"/><rect x="3" y="29" width="1" height="1"/><rect x="12" y="29" width="1" height="1"/><rect x="13" y="29" width="1" height="1"/><rect x="21" y="29" width="1" height="1"/><rect x="22" y="29" width="1" height="1"/><rect x="23" y="29" width="1" height="1"/><rect x="24" y="29" width="1" height="1"/><rect x="25" y="29" width="1" height="1"/><rect x="56" y="29" width="1" height="1"/><rect x="57" y="29" width="1" height="1"/><rect x="3" y="30" width="1" height="1"/><rect x="13" y="30" width="1" height="1"/><rect x="14" y="30" width="1" height="1"/><rect x="15" y="30" width="1" height="1"/><rect x="16" y="30" width="1" height="1"/><rect x="17" y="30" width="1" height="1"/><rect x="18" y="30" width="1" height="1"/><rect x="19" y="30" width="1" height="1"/><rect x="20" y="30" width="1" height="1"/><rect x="21" y="30" width="1" height="1"/><rect x="53" y="30" width="1" height="1"/><rect x="54" y="30" width="1" height="1"/><rect x="55" y="30" width="1" height="1"/><rect x="56" y="30" width="1" height="1"/><rect x="3" y="31" width="1" height="1"/><rect x="4" y="31" width="1" height="1"/><rect x="53" y="31" width="1" height="1"/><rect x="4" y="32" width="1" height="1"/><rect x="32" y="32" width="1" height="1"/><rect x="33" y="32" width="1" height="1"/><rect x="34" y="32" width="1" height="1"/><rect x="35" y="32" width="1" height="1"/><rect x="36" y="32" width="1" height="1"/><rect x="37" y="32" width="1" height="1"/><rect x="38" y="32" width="1" height="1"/><rect x="39" y="32" width="1" height="1"/><rect x="40" y="32" width="1" height="1"/><rect x="41" y="32" width="1" height="1"/><rect x="42" y="32" width="1" height="1"/><rect x="43" y="32" width="1" height="1"/><rect x="44" y="32" width="1" height="1"/><rect x="45" y="32" width="1" height="1"/><rect x="53" y="32" width="1" height="1"/><rect x="4" y="33" width="1" height="1"/><rect x="5" y="33" width="1" height="1"/><rect x="31" y="33" width="1" height="1"/><rect x="32" y="33" width="1" height="1"/><rect x="45" y="33" width="1" height="1"/><rect x="53" y="33" width="1" height="1"/><rect x="5" y="34" width="1" height="1"/><rect x="9" y="34" width="1" height="1"/><rect x="12" y="34" width="1" height="1"/><rect x="15" y="34" width="1" height="1"/><rect x="18" y="34" width="1" height="1"/><rect x="21" y="34" width="1" height="1"/><rect x="23" y="34" width="1" height="1"/><rect x="25" y="34" width="1" height="1"/><rect x="27" y="34" width="1" height="1"/><rect x="31" y="34" width="1" height="1"/><rect x="45" y="34" width="1" height="1"/><rect x="46" y="34" width="1" height="1"/><rect x="48" y="34" width="1" height="1"/><rect x="49" y="34" width="1" height="1"/><rect x="50" y="34" width="1" height="1"/><rect x="51" y="34" width="1" height="1"/><rect x="53" y="34" width="1" height="1"/><rect x="5" y="35" width="1" height="1"/><rect x="30" y="35" width="1" height="1"/><rect x="31" y="35" width="1" height="1"/><rect x="46" y="35" width="1" height="1"/><rect x="53" y="35" width="1" height="1"/><rect x="5" y="36" width="1" height="1"/><rect x="29" y="36" width="1" height="1"/><rect x="30" y="36" width="1" height="1"/><rect x="46" y="36" width="1" height="1"/><rect x="47" y="36" width="1" height="1"/><rect x="52" y="36" width="1" height="1"/><rect x="53" y="36" width="1" height="1"/><rect x="4" y="37" width="1" height="1"/><rect x="5" y="37" width="1" height="1"/><rect x="6" y="37" width="1" height="1"/><rect x="7" y="37" width="1" height="1"/><rect x="8" y="37" width="1" height="1"/><rect x="9" y="37" width="1" height="1"/><rect x="10" y="37" width="1" height="1"/><rect x="11" y="37" width="1" height="1"/><rect x="12" y="37" width="1" height="1"/><rect x="13" y="37" width="1" height="1"/><rect x="14" y="37" width="1" height="1"/><rect x="15" y="37" width="1" height="1"/><rect x="16" y="37" width="1" height="1"/><rect x="17" y="37" width="1" height="1"/><rect x="18" y="37" width="1" height="1"/><rect x="19" y="37" width="1" height="1"/><rect x="20" y="37" width="1" height="1"/><rect x="21" y="37" width="1" height="1"/><rect x="22" y="37" width="1" height="1"/><rect x="23" y="37" width="1" height="1"/><rect x="24" y="37" width="1" height="1"/><rect x="25" y="37" width="1" height="1"/><rect x="26" y="37" width="1" height="1"/><rect x="27" y="37" width="1" height="1"/><rect x="28" y="37" width="1" height="1"/><rect x="29" y="37" width="1" height="1"/><rect x="47" y="37" width="1" height="1"/><rect x="49" y="37" width="1" height="1"/><rect x="50" y="37" width="1" height="1"/><rect x="52" y="37" width="1" height="1"/><rect x="2" y="38" width="1" height="1"/><rect x="3" y="38" width="1" height="1"/><rect x="4" y="38" width="1" height="1"/><rect x="29" y="38" width="1" height="1"/><rect x="30" y="38" width="1" height="1"/><rect x="47" y="38" width="1" height="1"/><rect x="48" y="38" width="1" height="1"/><rect x="52" y="38" width="1" height="1"/><rect x="3" y="39" width="1" height="1"/><rect x="30" y="39" width="1" height="1"/><rect x="31" y="39" width="1" height="1"/><rect x="48" y="39" width="1" height="1"/><rect x="52" y="39" width="1" height="1"/><rect x="2" y="40" width="1" height="1"/><rect x="3" y="40" width="1" height="1"/><rect x="4" y="40" width="1" height="1"/><rect x="5" y="40" width="1" height="1"/><rect x="31" y="40" width="1" height="1"/><rect x="32" y="40" width="1" height="1"/><rect x="33" y="40" width="1" height="1"/><rect x="34" y="40" width="1" height="1"/><rect x="35" y="40" width="1" height="1"/><rect x="48" y="40" width="1" height="1"/><rect x="49" y="40" width="1" height="1"/><rect x="52" y="40" width="1" height="1"/><rect x="5" y="41" width="1" height="1"/><rect x="9" y="41" width="1" height="1"/><rect x="10" y="41" width="1" height="1"/><rect x="14" y="41" width="1" height="1"/><rect x="15" y="41" width="1" height="1"/><rect x="19" y="41" width="1" height="1"/><rect x="20" y="41" width="1" height="1"/><rect x="24" y="41" width="1" height="1"/><rect x="25" y="41" width="1" height="1"/><rect x="31" y="41" width="1" height="1"/><rect x="32" y="41" width="1" height="1"/><rect x="33" y="41" width="1" height="1"/><rect x="34" y="41" width="1" height="1"/><rect x="35" y="41" width="1" height="1"/><rect x="36" y="41" width="1" height="1"/><rect x="37" y="41" width="1" height="1"/><rect x="38" y="41" width="1" height="1"/><rect x="39" y="41" width="1" height="1"/><rect x="40" y="41" width="1" height="1"/><rect x="49" y="41" width="1" height="1"/><rect x="50" y="41" width="1" height="1"/><rect x="51" y="41" width="1" height="1"/><rect x="52" y="41" width="1" height="1"/><rect x="5" y="42" width="1" height="1"/><rect x="6" y="42" width="1" height="1"/><rect x="10" y="42" width="1" height="1"/><rect x="11" y="42" width="1" height="1"/><rect x="15" y="42" width="1" height="1"/><rect x="16" y="42" width="1" height="1"/><rect x="20" y="42" width="1" height="1"/><rect x="21" y="42" width="1" height="1"/><rect x="25" y="42" width="1" height="1"/><rect x="26" y="42" width="1" height="1"/><rect x="29" y="42" width="1" height="1"/><rect x="30" y="42" width="1" height="1"/><rect x="31" y="42" width="1" height="1"/><rect x="6" y="43" width="1" height="1"/><rect x="11" y="43" width="1" height="1"/><rect x="12" y="43" width="1" height="1"/><rect x="16" y="43" width="1" height="1"/><rect x="17" y="43" width="1" height="1"/><rect x="21" y="43" width="1" height="1"/><rect x="22" y="43" width="1" height="1"/><rect x="26" y="43" width="1" height="1"/><rect x="27" y="43" width="1" height="1"/><rect x="28" y="43" width="1" height="1"/><rect x="29" y="43" width="1" height="1"/><rect x="6" y="44" width="1" height="1"/><rect x="25" y="44" width="1" height="1"/><rect x="26" y="44" width="1" height="1"/><rect x="27" y="44" width="1" height="1"/><rect x="6" y="45" width="1" height="1"/><rect x="7" y="45" width="1" height="1"/><rect x="12" y="45" width="1" height="1"/><rect x="13" y="45" width="1" height="1"/><rect x="14" y="45" width="1" height="1"/><rect x="15" y="45" width="1" height="1"/><rect x="16" y="45" width="1" height="1"/><rect x="17" y="45" width="1" height="1"/><rect x="18" y="45" width="1" height="1"/><rect x="19" y="45" width="1" height="1"/><rect x="20" y="45" width="1" height="1"/><rect x="21" y="45" width="1" height="1"/><rect x="22" y="45" width="1" height="1"/><rect x="23" y="45" width="1" height="1"/><rect x="24" y="45" width="1" height="1"/><rect x="25" y="45" width="1" height="1"/><rect x="7" y="46" width="1" height="1"/><rect x="10" y="46" width="1" height="1"/><rect x="11" y="46" width="1" height="1"/><rect x="12" y="46" width="1" height="1"/><rect x="7" y="47" width="1" height="1"/><rect x="8" y="47" width="1" height="1"/><rect x="9" y="47" width="1" height="1"/><rect x="10" y="47" width="1" height="1"/>
  </g>
</svg>